<svg id="Calque_1" data-name="Calque 1" xmlns="http://www.w3.org/2000/svg" viewBox="0 0 58.95 56.77"><defs><style>.cls-1{fill:#fff;}</style></defs><title>refreshwhite</title><path id="Tracé_10" data-name="Tracé 10" class="cls-1" d="M53.73,14.11A1.5,1.5,0,0,0,52.06,14l-3.18,1.75A21.54,21.54,0,0,0,9.28,27.47a2.36,2.36,0,1,0,4.71,0A16.83,16.83,0,0,1,44.74,18l-3,1.64a1.51,1.51,0,0,0,.31,2.77l8,2.32a1.47,1.47,0,0,0,.42.06,1.56,1.56,0,0,0,.73-.19,1.48,1.48,0,0,0,.72-.9l2.31-8a1.5,1.5,0,0,0-.51-1.6"/><path id="Tracé_11" data-name="Tracé 11" class="cls-1" d="M50.51,27a2.36,2.36,0,0,0-2.36,2.35h0A16.83,16.83,0,0,1,17.4,38.82l3-1.63a1.52,1.52,0,0,0-.31-2.78l-8-2.31a1.55,1.55,0,0,0-.43-.07,1.52,1.52,0,0,0-.72.19,1.58,1.58,0,0,0-.73.91l-2.32,8a1.52,1.52,0,0,0,1,1.87,1.53,1.53,0,0,0,1.15-.12l3.18-1.76a21.54,21.54,0,0,0,39.6-11.75A2.35,2.35,0,0,0,50.51,27"/></svg>