<svg id="Calque_1" data-name="Calque 1" xmlns="http://www.w3.org/2000/svg" viewBox="0 0 58.95 56.77"><defs><style>.cls-1{fill:#0371b9;fill-rule:evenodd;}</style></defs><title>setting</title><path id="Tracé_79" data-name="Tracé 79" class="cls-1" d="M16,40.18,17.86,37c-.46-.85-.88-1.64-1.33-2.42a.45.45,0,0,0-.36-.22c-1.08,0-2.16.07-3.24.12-.23,0-.35,0-.41-.29-.18-.72-.39-1.44-.6-2.2l2-1.1c.42-.23.85-.45,1.26-.7a.42.42,0,0,0,.15-.3c0-.84,0-1.68,0-2.52a.34.34,0,0,0-.2-.38c-1-.5-1.92-1-2.89-1.54a.31.31,0,0,1-.2-.4s0,0,0,0c.2-.7.38-1.42.57-2.13h2.68a4.42,4.42,0,0,1,.63,0c.4.07.59-.09.77-.45.34-.68.75-1.32,1.15-2a.33.33,0,0,0,0-.43l-2-3.14,1.82-1.81,1.79,1.09c.46.28.93.58,1.41.85a.45.45,0,0,0,.36,0c.76-.42,1.49-.87,2.26-1.28a.42.42,0,0,0,.25-.43c0-1-.07-2.09-.1-3.13v-.31c.82-.21,1.63-.43,2.46-.66.56,1,1.13,2,1.68,3a.37.37,0,0,0,.43.24c.88,0,1.76,0,2.63,0a.36.36,0,0,0,.41-.23c.48-.93,1-1.85,1.46-2.76a.38.38,0,0,1,.31-.16c.69.17,1.37.38,2.06.55.21,0,.22.16.22.33l-.06,3.16a.36.36,0,0,0,.23.4c.79.45,1.57.94,2.35,1.39a.5.5,0,0,0,.4,0c.88-.54,1.75-1.1,2.61-1.65a.34.34,0,0,1,.5,0s0,0,0,0c.45.48.92.94,1.38,1.39a.28.28,0,0,1,.08.39l0,0c-.56.89-1.1,1.8-1.66,2.69a.44.44,0,0,0,0,.53c.45.77.88,1.54,1.29,2.33a.44.44,0,0,0,.5.26l2.88-.1c.22,0,.33,0,.39.28.16.65.36,1.31.51,2a.35.35,0,0,1-.14.32c-.85.49-1.72,1-2.58,1.41a.67.67,0,0,0-.41.7c0,.82,0,1.64,0,2.46a.4.4,0,0,0,.23.44c1,.5,1.94,1,2.93,1.55l-.58,2.29c-.06.22-.23.2-.39.19-1,0-2,0-3-.06a.51.51,0,0,0-.55.31c-.41.74-.89,1.45-1.32,2.19a.44.44,0,0,0,0,.39c.55.9,1.11,1.81,1.68,2.7a.3.3,0,0,1,0,.42l-.06,0c-.5.45-.95,1-1.44,1.43a.38.38,0,0,1-.34.05c-1-.58-1.94-1.18-2.92-1.76a.45.45,0,0,0-.36,0c-.76.41-1.51.84-2.28,1.23a.41.41,0,0,0-.25.44c0,1,0,2.06.09,3.09,0,.21,0,.33-.25.38-.66.17-1.31.34-2,.53a.26.26,0,0,1-.34-.11s0,0,0,0c-.53-1-1.07-1.93-1.59-2.9a.37.37,0,0,0-.37-.23c-.85,0-1.69,0-2.53,0a.39.39,0,0,0-.43.24c-.48.94-1,1.86-1.47,2.8-.11.2-.19.26-.43.18-.72-.22-1.44-.39-2.13-.57,0-1,0-1.9,0-2.84s0-1-.9-1.48a9.48,9.48,0,0,1-1.27-.82.6.6,0,0,0-.8,0c-.88.56-1.8,1.1-2.7,1.65C17.24,41.39,16.64,40.79,16,40.18ZM29.51,20.7a7.92,7.92,0,1,0,.15,0Z"/></svg>