<svg width="124" height="62" viewBox="0 0 124 62" fill="none" xmlns="http://www.w3.org/2000/svg">
<path d="M100.9 21.501C102.08 21.9727 103.152 22.5843 104.104 23.429C106.11 25.21 107.229 27.5255 107.54 30.3216C107.815 32.8128 107.45 35.1767 106.306 37.3666C104.943 39.9798 102.901 41.7196 100.368 42.7957C98.7108 43.5005 96.9862 43.8108 95.2092 43.8108C89.7278 43.809 84.248 43.8108 78.7666 43.809C78.2692 43.809 78.3249 43.8377 78.3249 43.3302C78.3249 29.1325 78.3249 14.9348 78.3249 0.738922C78.3249 0.663594 78.3298 0.588265 78.3249 0.51473C78.3118 0.346137 78.3739 0.263634 78.5343 0.274395C78.6161 0.279776 78.6979 0.274395 78.7797 0.274395C83.8112 0.274395 88.841 0.270808 93.8724 0.276189C96.3415 0.277982 98.6879 0.855503 100.853 2.18452C102.873 3.42385 104.429 5.15104 105.359 7.50596C105.982 9.08607 106.195 10.7379 106.087 12.4525C105.977 14.2102 105.57 15.8639 104.763 17.392C103.917 18.9936 102.742 20.2347 101.303 21.1853C101.175 21.2714 101.028 21.3234 100.9 21.501ZM91.0892 35.4529C92.3556 35.4529 93.6221 35.4511 94.8902 35.4547C95.273 35.4565 95.6494 35.4099 96.0208 35.3023C98.1692 34.6745 99.6892 32.2443 99.0462 29.4463C98.5701 27.373 96.9305 25.9992 94.9278 25.9866C92.2722 25.9687 89.6149 25.9812 86.9593 25.983C86.6042 25.983 86.5993 25.9884 86.5993 26.3776C86.5977 29.2742 86.5977 32.1707 86.5993 35.0673C86.5993 35.4493 86.6026 35.4529 86.9609 35.4529C88.337 35.4529 89.7131 35.4529 91.0892 35.4529ZM86.5993 13.2363C86.5993 14.6245 86.5993 16.0127 86.5993 17.4009C86.5993 17.5049 86.6026 17.6108 86.5993 17.7148C86.5944 17.8637 86.6533 17.9372 86.7924 17.9318C86.8611 17.9282 86.9282 17.9318 86.9969 17.9318C89.1633 17.9318 91.3281 17.9318 93.4944 17.9318C93.8086 17.9318 94.1178 17.887 94.4255 17.817C96.1828 17.4153 97.9287 15.5338 97.6521 12.6803C97.4312 10.4007 95.7116 8.59284 93.6417 8.57132C91.4082 8.5498 89.1748 8.56594 86.9413 8.56773C86.6059 8.56773 86.601 8.57311 86.601 8.93541C86.5977 10.3702 86.5993 11.8033 86.5993 13.2363Z" fill="#0082C3"/>
<path d="M0.677057 22.039C0.677057 14.9707 0.677057 7.90233 0.678693 0.83398C0.678693 0.204447 0.598517 0.277982 1.16629 0.277982C3.64683 0.274395 6.12901 0.276189 8.60955 0.277982C9.09878 0.277982 9.05133 0.218796 9.05133 0.753271C9.05297 6.07291 9.05133 11.3926 9.05297 16.7122C9.05297 17.3202 8.98425 17.2539 9.5602 17.2539C14.6718 17.2556 19.7851 17.2539 24.8967 17.2539C24.9507 17.2539 25.0063 17.2539 25.0603 17.2539C25.4105 17.2485 25.4137 17.2485 25.4137 16.8611C25.4154 13.9322 25.4137 11.0034 25.4137 8.07451C25.4137 5.65323 25.4137 3.23374 25.4137 0.812457C25.4137 0.708432 25.417 0.602613 25.4137 0.498588C25.4088 0.353311 25.4595 0.272601 25.6019 0.277982C25.6837 0.279776 25.7655 0.277982 25.8473 0.277982C28.3557 0.277982 30.864 0.277982 33.3724 0.277982C33.4002 0.277982 33.4264 0.277982 33.4542 0.277982C33.8076 0.283363 33.8109 0.283362 33.8109 0.670767C33.8126 2.20963 33.8109 3.74848 33.8109 5.28734C33.8109 17.9139 33.8109 30.5422 33.8093 43.1687C33.8093 43.8377 33.8927 43.7588 33.2644 43.7606C30.797 43.7624 28.3295 43.7624 25.8621 43.7624C25.3876 43.7624 25.4137 43.7929 25.4137 43.2799C25.4137 37.7056 25.4154 32.1331 25.4121 26.5587C25.4121 25.9149 25.4825 25.992 24.8869 25.992C19.7753 25.9902 14.662 25.9902 9.55039 25.9902C8.98752 25.9902 9.05297 25.9525 9.05297 26.5516C9.05133 32.0649 9.05297 37.5801 9.05297 43.0934C9.05297 43.1526 9.05297 43.2136 9.05297 43.2728C9.05461 43.8054 9.07424 43.7606 8.61282 43.7606C6.11755 43.7606 3.62393 43.7606 1.12866 43.7606C1.07466 43.7606 1.01903 43.7624 0.965035 43.7606C0.685238 43.7498 0.685238 43.7498 0.677057 43.4234C0.675421 43.3194 0.677057 43.2136 0.677057 43.1095C0.677057 36.086 0.677057 29.0625 0.677057 22.039Z" fill="#0082C3"/>
<path d="M71.9172 14.551C71.9172 18.4824 71.9222 22.4121 71.9156 26.3435C71.9107 28.7307 71.6882 31.0874 71.0009 33.3652C69.3009 38.9987 65.7863 42.4962 60.5388 43.8539C57.1747 44.7255 53.7943 44.6592 50.4776 43.5615C45.5885 41.9419 42.4355 38.3746 40.9351 33.0406C40.3935 31.1143 40.1333 29.1343 40.13 27.1237C40.1153 18.321 40.1235 9.5183 40.1235 0.715603C40.1235 0.625926 40.1251 0.536249 40.1251 0.446572C40.1251 0.337166 40.1791 0.28336 40.274 0.279773C40.3689 0.276186 40.4655 0.276186 40.5604 0.276186C43.0687 0.276186 45.5771 0.276186 48.0871 0.276186C48.1411 0.276186 48.1967 0.28336 48.2507 0.274392C48.4716 0.243902 48.5419 0.362276 48.5223 0.586468C48.5125 0.704842 48.5207 0.825009 48.5207 0.945177C48.5207 9.55418 48.5207 18.1614 48.5207 26.7704C48.5207 28.0779 48.6548 29.3638 49.0246 30.6121C49.8624 33.4495 51.6492 35.0637 54.3195 35.5408C55.6399 35.7775 56.9571 35.7506 58.2596 35.426C60.5863 34.8467 62.1489 33.3078 62.9392 30.8399C63.4153 29.3531 63.5266 27.8106 63.525 26.2485C63.5217 17.7901 63.5217 9.32998 63.525 0.871642C63.525 0.191889 63.4317 0.274392 64.06 0.274392C66.5144 0.270805 68.9687 0.272598 71.4231 0.272598C71.518 0.272598 71.6145 0.277979 71.7094 0.272598C71.8698 0.261837 71.9303 0.34434 71.9222 0.514727C71.9156 0.6331 71.9222 0.753268 71.9222 0.873435C71.9172 5.43441 71.9172 9.99359 71.9172 14.551Z" fill="#0082C3"/>
<path d="M111.042 42.4979C111.017 42.8387 110.981 43.0898 110.986 43.3427C110.991 43.5902 110.888 43.6422 110.691 43.635C109.654 43.5956 109.826 43.8592 109.854 42.6755C109.863 42.2881 109.886 41.9007 109.886 41.5115C109.89 38.5701 109.888 35.6269 109.888 32.6855C109.888 32.5815 109.893 32.4756 109.888 32.3716C109.88 32.203 109.939 32.1277 110.099 32.1331C110.385 32.142 110.672 32.142 110.958 32.1331C111.128 32.1277 111.215 32.1887 111.2 32.3878C111.194 32.4774 111.199 32.5671 111.199 32.6568C111.199 33.9105 111.199 35.166 111.199 36.4196C111.199 36.5613 111.199 36.7048 111.199 36.9451C111.351 36.7568 111.434 36.6474 111.524 36.5434C112.769 35.0888 115.124 35.3866 116.034 37.1155C116.824 38.6203 116.855 40.1879 116.269 41.759C115.675 43.3517 114.154 44.1875 112.71 43.7947C112.164 43.6458 111.711 43.3355 111.336 42.8782C111.254 42.7813 111.179 42.6773 111.042 42.4979ZM111.199 39.8202C111.199 40.0749 111.195 40.3278 111.199 40.5824C111.21 41.5617 111.791 42.3814 112.663 42.6558C113.527 42.9266 114.455 42.5697 114.888 41.7034C115.522 40.4372 115.523 39.1297 114.898 37.8527C114.636 37.3164 114.198 36.99 113.641 36.8734C112.208 36.5721 111.164 37.9083 111.197 39.1046C111.203 39.3431 111.199 39.5816 111.199 39.8202Z" fill="#0082C3"/>
<path d="M116.75 35.9192C117.185 35.9192 117.539 35.9318 117.892 35.9138C118.107 35.9031 118.202 35.9946 118.272 36.2116C118.609 37.2357 118.959 38.2562 119.309 39.2749C119.623 40.1896 119.929 41.1097 120.168 42.1069C120.316 41.9276 120.339 41.7482 120.388 41.585C120.919 39.813 121.451 38.0428 121.983 36.2708C122.101 35.878 122.104 35.8798 122.492 35.878C122.79 35.878 123.089 35.878 123.369 35.878C123.439 35.9981 123.398 36.0806 123.37 36.1614C122.562 38.4589 121.759 40.7564 120.941 43.0503C120.653 43.8574 120.309 44.6376 119.872 45.364C119.354 46.2249 118.678 46.8688 117.776 47.206C117.464 47.3226 117.462 47.3226 117.361 46.9656C117.3 46.7522 117.246 46.5352 117.185 46.3218C117.146 46.1855 117.177 46.0886 117.305 46.0384C117.356 46.0187 117.405 45.9918 117.455 45.9702C118.409 45.5452 119.01 44.7452 119.427 43.748C119.499 43.5759 119.514 43.4144 119.445 43.2333C118.712 41.2568 117.984 39.2785 117.254 37.302C117.095 36.8608 116.935 36.4232 116.75 35.9192Z" fill="#0082C3"/>
<path d="M77.577 48.7197V61.1795L123.408 61.2135V48.7215C123.408 48.7197 77.577 48.7197 77.577 48.7197Z" fill="#0082C3"/>
<path d="M95.9023 51.7076L93.3358 55.8735C93.0686 56.3145 92.6004 56.5811 92.1102 56.5811C91.312 56.5811 90.6516 55.8625 90.6516 54.9951C90.6516 54.1149 91.3126 53.3974 92.1161 53.3974C92.1959 53.3863 92.3029 53.3741 92.3774 53.3741C92.9313 53.3741 93.496 53.629 93.8796 54.0577L94.6465 52.7844C94.0499 52.1136 93.166 51.6843 92.2816 51.6843C90.6309 51.6843 89.1185 53.1775 89.1185 54.9834C89.1185 56.7788 90.4712 58.2482 92.1225 58.2482C92.9212 58.2482 93.72 57.8778 94.274 57.2641H96.0417L96.0524 58.2482H97.5866V51.7076H95.9023ZM95.1999 55.8275L96.0407 54.5436L96.0513 55.8275H95.1999Z" fill="white"/>
<path d="M100.526 58.247H98.9919V53.2341H97.7988V51.7181L101.718 51.707V53.2341H100.526V58.247Z" fill="white"/>
<path d="M106.831 51.7076L105.297 51.7082L105.287 54.1499H103.476L103.464 51.7076H101.932V58.247H103.476V55.6653H105.297V58.247H106.831V51.7076Z" fill="white"/>
<path d="M119.122 51.7076V54.7513L117.014 51.7076L115.618 51.7181L115.607 54.1032C115.256 52.7138 114.052 51.707 112.71 51.707C111.059 51.707 109.707 53.1764 109.707 54.9823C109.707 55.5621 109.866 56.1512 110.122 56.661H108.602V51.707H107.04V58.247H110.613V57.3318C111.178 57.8994 111.944 58.247 112.711 58.247C114.053 58.247 115.236 57.263 115.608 55.873L115.619 58.247H117.164V55.0645L119.261 58.247H120.656L120.658 51.707H119.122V51.7076ZM112.71 56.6499C111.869 56.6499 111.176 55.9091 111.176 54.9823C111.176 54.0682 111.869 53.3164 112.71 53.3164C113.563 53.3164 114.255 54.0682 114.255 54.9823C114.255 55.9091 113.563 56.6499 112.71 56.6499Z" fill="white"/>
<path d="M87.2624 56.6616V55.7464H88.9083L88.9057 54.1499H87.2624V53.3169H89.077L89.0738 51.7082L85.5803 51.7187V53.965C85.2179 52.7383 84.1739 51.8348 82.9813 51.7187L80.3291 51.7082V58.247H82.992C84.1739 58.1315 85.2179 57.2292 85.5803 56.013V58.247H89.077L89.0738 56.661H87.2624V56.6616ZM83.8865 55.978C83.7912 56.4184 83.407 56.7298 82.992 56.7421H82.0123V53.2341H82.992C83.4076 53.2341 83.7912 53.5596 83.8865 54.0105C83.9828 54.3115 84.036 54.6585 84.036 54.9823C84.036 55.3188 83.9828 55.6659 83.8865 55.978Z" fill="white"/>
</svg>
