<?xml version="1.0" standalone="no"?>
<!DOCTYPE svg PUBLIC "-//W3C//DTD SVG 20010904//EN"
 "http://www.w3.org/TR/2001/REC-SVG-20010904/DTD/svg10.dtd">
<svg version="1.0" xmlns="http://www.w3.org/2000/svg"
 width="1024.000000pt" height="1024.000000pt" viewBox="0 0 1024.000000 1024.000000"
 preserveAspectRatio="xMidYMid meet">
<metadata>
Created by potrace 1.11, written by Peter Selinger 2001-2013
</metadata>
<g transform="translate(0.000000,1024.000000) scale(0.100000,-0.100000)"
fill="#000000" stroke="none">
<path d="M4629 9446 c-2 -2 -42 -7 -89 -10 -104 -8 -236 -23 -310 -36 -30 -5
-73 -12 -95 -15 -356 -52 -853 -210 -1242 -396 -339 -161 -741 -422 -992 -643
-19 -17 -58 -51 -86 -76 -87 -76 -281 -276 -373 -383 -464 -541 -774 -1169
-926 -1877 -61 -283 -69 -362 -70 -705 -1 -287 8 -563 19 -597 2 -7 6 -44 9
-81 7 -76 9 -91 37 -267 42 -265 130 -607 223 -863 582 -1605 1990 -2688 3706
-2852 36 -3 83 -8 105 -11 56 -6 538 -6 605 0 30 3 84 8 120 11 86 8 202 22
325 41 76 11 252 49 375 79 353 88 682 212 1019 386 l155 79 55 -43 c235 -183
510 -298 818 -341 97 -14 378 -15 453 -2 253 45 471 120 627 216 l32 19 -47
77 c-49 80 -64 93 -86 75 -28 -24 -178 -91 -278 -125 -171 -59 -291 -75 -508
-71 -250 5 -403 39 -615 139 -92 43 -265 151 -265 164 1 4 40 32 88 62 142 89
515 367 562 420 17 18 138 120 144 120 4 0 41 -26 84 -59 325 -246 698 -396
1295 -517 92 -19 175 -34 184 -34 10 0 -82 48 -203 107 -408 199 -647 327
-821 439 -46 30 -90 59 -96 64 -7 5 -59 47 -116 92 -58 46 -109 90 -114 99 -8
13 5 32 65 95 273 284 616 743 747 1001 57 111 82 188 82 253 1 49 -2 57 -30
82 -23 20 -42 28 -70 28 -33 0 -45 -7 -84 -47 -25 -27 -95 -115 -156 -196 -61
-82 -133 -172 -159 -200 -136 -147 -223 -237 -382 -396 -187 -188 -295 -291
-303 -291 -3 0 -39 51 -80 113 -132 199 -238 387 -406 724 l-111 222 -138 -66
c-75 -36 -154 -72 -174 -81 -21 -8 -38 -19 -38 -23 0 -12 250 -434 349 -588
104 -164 213 -319 298 -424 35 -43 61 -82 58 -88 -16 -25 -284 -228 -430 -325
-136 -91 -364 -224 -384 -224 -12 0 -98 151 -135 238 -57 133 -76 199 -106
367 -18 99 -21 340 -6 440 79 515 387 938 846 1158 111 53 279 109 365 122 11
2 45 7 75 11 105 17 469 8 501 -11 3 -3 24 -7 45 -11 99 -16 251 -74 414 -160
47 -25 167 -109 221 -154 168 -144 291 -300 387 -496 65 -131 106 -258 136
-419 13 -70 18 -142 18 -248 0 -110 -4 -162 -17 -237 -3 -14 -7 -38 -10 -55
-16 -99 -88 -304 -138 -395 -10 -19 -28 -52 -40 -72 -11 -21 -19 -40 -16 -42
13 -12 151 -96 157 -96 4 0 22 24 39 53 72 119 151 324 182 473 11 54 24 113
27 129 13 64 12 400 -1 490 -47 302 -163 571 -352 813 -55 71 -64 88 -55 102
6 10 45 62 87 116 42 54 81 108 86 122 24 62 -3 135 -63 172 -65 39 -144 19
-198 -51 -139 -178 -140 -180 -156 -165 -23 24 -172 120 -246 159 -117 62
-316 136 -413 153 -16 2 -37 7 -46 10 -17 5 -45 9 -129 20 -53 7 -54 7 -56 39
-1 20 8 29 40 45 67 32 91 97 59 160 -31 60 -61 68 -258 70 l-173 1 -36 -31
c-83 -74 -38 -198 77 -209 4 -1 7 -14 7 -31 0 -33 2 -33 -120 -50 -412 -59
-814 -290 -1077 -615 -134 -166 -257 -402 -310 -590 -1 -5 -9 -34 -17 -63 -9
-30 -18 -72 -21 -95 -4 -23 -8 -44 -10 -47 -17 -27 -25 -344 -12 -465 25 -232
114 -501 229 -687 39 -62 41 -60 -115 -116 -272 -98 -606 -185 -872 -227 -108
-17 -248 -35 -315 -40 -41 -4 -91 -9 -110 -11 -72 -10 -510 -12 -625 -4 -787
58 -1464 300 -1980 711 -229 182 -450 418 -603 647 -203 301 -365 670 -447
1019 -9 37 -18 75 -20 83 -17 68 -47 237 -59 340 -8 69 -18 145 -21 170 -3 25
-8 157 -12 294 l-6 248 349 -6 c192 -4 399 -9 459 -11 61 -2 236 -7 390 -10
154 -3 375 -7 490 -10 116 -3 332 -7 480 -10 149 -3 365 -8 480 -10 116 -3
345 -7 510 -10 165 -3 395 -7 510 -10 116 -2 410 -7 655 -11 245 -3 506 -8
580 -10 348 -9 2232 -12 2304 -3 90 11 124 28 186 95 128 139 159 372 115 854
-2 25 -7 79 -10 120 -10 133 -107 520 -199 788 -196 577 -484 1096 -840 1511
-654 765 -1573 1251 -2591 1370 -49 6 -108 14 -130 17 -44 6 -690 16 -696 10z
m551 -1291 c25 -3 95 -13 155 -21 313 -42 672 -138 965 -259 218 -90 512 -262
710 -415 126 -98 336 -310 432 -436 287 -378 434 -808 442 -1294 2 -113 -5
-176 -20 -173 -5 1 -79 4 -164 8 -85 4 -178 8 -207 10 -28 2 -154 7 -280 10
-125 4 -266 9 -313 12 -47 2 -875 6 -1840 8 -1618 3 -2426 9 -2705 20 -60 2
-177 7 -260 10 -345 12 -494 20 -502 28 -2 3 3 45 13 93 9 49 18 100 20 114 3
14 20 85 39 158 187 713 625 1288 1277 1673 312 185 735 340 1103 404 158 27
264 42 410 55 90 9 655 5 725 -5z"/>
</g>
</svg>
