<?xml version="1.0" standalone="no"?>
<!DOCTYPE svg PUBLIC "-//W3C//DTD SVG 20010904//EN"
 "http://www.w3.org/TR/2001/REC-SVG-20010904/DTD/svg10.dtd">
<svg version="1.0" xmlns="http://www.w3.org/2000/svg"
 width="260.000000pt" height="260.000000pt" viewBox="0 0 260.000000 260.000000"
 preserveAspectRatio="xMidYMid meet">
<metadata>
Created by potrace 1.11, written by Peter Selinger 2001-2013
</metadata>
<g transform="translate(0.000000,260.000000) scale(0.100000,-0.100000)"
fill="#000000" stroke="none">
<path d="M0 1300 l0 -1300 1300 0 1300 0 0 1300 0 1300 -1300 0 -1300 0 0
-1300z m940 820 c119 -14 193 -34 285 -79 190 -94 328 -265 386 -480 l18 -66
0 318 1 317 475 0 475 0 0 -185 0 -185 -260 0 -260 0 0 -130 0 -130 225 0 225
0 0 -180 0 -180 -225 0 -225 0 0 -150 0 -150 260 0 260 0 0 -185 0 -185 -480
0 -480 0 0 303 -1 302 -23 -70 c-74 -229 -266 -431 -475 -499 -120 -39 -207
-46 -612 -46 l-379 0 0 835 0 835 363 0 c199 0 400 -5 447 -10z"/>
<path d="M560 1300 l0 -470 133 0 c156 0 244 17 328 61 91 49 144 121 172 234
50 199 19 387 -83 498 -96 105 -217 147 -427 147 l-123 0 0 -470z"/>
</g>
</svg>
