<svg width="195" height="198" viewBox="0 0 195 198" fill="none" xmlns="http://www.w3.org/2000/svg">
<g clip-path="url(#clip0)">
<path fill-rule="evenodd" clip-rule="evenodd" d="M32.3937 49.948C30.2792 56.7404 29.8925 63.839 28.5176 70.7765C26.7281 79.8071 23.237 88.5916 18.262 96.5862C13.1149 104.858 6.22413 112.703 4.78132 122.098C2.70476 135.616 12.8897 148.058 25.2003 154.68C44.4157 165.016 68.2898 164.873 90.6184 161.823C95.1019 161.211 99.7687 160.505 104.02 161.783C111.751 164.11 115.505 171.955 119.713 178.462C122.703 183.087 126.436 187.455 131.491 190.025C139.062 193.875 148.771 193.088 156.695 189.361C164.619 185.634 170.936 179.294 175.95 172.375C189.7 153.405 194.494 129.222 189.716 107.229C184.94 85.235 170.861 65.6208 151.679 52.738C143.275 47.0947 133.57 42.5984 123.106 42.2699C113.877 41.9805 104.565 44.9404 95.4242 43.902C86.6721 42.9079 79.0317 38.3735 71.0445 35.0238C63.0583 31.6738 53.5376 29.523 45.4874 33.2845C38.7406 36.4374 34.5077 43.1552 32.3937 49.948Z" fill="#E7F3F9"/>
<path d="M111.595 31.3261L113.189 30.8797C113.32 30.8456 113.458 30.8602 113.575 30.9207C113.691 30.9812 113.777 31.0828 113.813 31.2041C113.845 31.3269 113.825 31.4581 113.757 31.5703C113.688 31.6824 113.578 31.7668 113.448 31.8057L111.854 32.2521C111.723 32.2889 111.583 32.2754 111.466 32.2145C111.349 32.1537 111.263 32.0505 111.229 31.9278C111.195 31.805 111.214 31.6726 111.282 31.5598C111.351 31.4469 111.463 31.3629 111.595 31.3261Z" fill="white"/>
<path d="M60.4776 186.802L129.72 190.6C132.877 190.724 136.015 189.746 138.445 187.878C140.875 186.011 142.399 183.407 142.683 180.638L156.237 47.0194C156.517 44.2499 155.531 41.5433 153.497 39.4947C151.463 37.4461 148.547 36.2233 145.39 36.0951L85.1153 33.6458C81.9587 33.5211 78.8211 34.4999 76.391 36.3675C73.9609 38.235 72.4368 40.8387 72.1531 43.6073L49.6402 175.875C49.3596 178.644 50.3434 181.35 52.3756 183.399C54.4077 185.447 57.3218 186.672 60.4776 186.802Z" fill="#BEDEEF"/>
<path d="M60.1888 189.438L123.553 193.456L127.509 193.706C128.192 193.739 128.787 193.794 129.534 193.828L130.86 193.829C131.305 193.814 131.729 193.767 132.166 193.725C135.682 193.348 138.999 191.945 141.577 189.746C144.192 187.55 145.895 184.662 146.395 181.572C146.538 180.731 146.56 180.235 146.634 179.661L146.805 177.916L147.15 174.434C148.058 165.133 148.919 155.826 149.731 146.514L154.727 90.8L157.216 62.9317L158.448 49.0426L158.609 47.2999C158.668 46.6117 158.669 45.9228 158.611 45.2389C158.383 42.4624 157.086 39.8745 154.93 37.8944C152.773 35.9142 149.884 34.6577 146.731 34.3284L145.56 34.2399L144.566 34.2063L142.582 34.1478L134.647 33.8572L118.742 33.3686L86.9555 32.4034C86.2774 32.3883 85.6661 32.3463 84.9285 32.3468L83.8633 32.3599L82.742 32.4709C81.2613 32.678 79.8187 33.0929 78.4706 33.6994C75.7734 34.924 73.5879 36.8904 72.2662 39.2816C71.6181 40.4641 71.2264 41.7337 71.1117 43.0235C70.9973 44.2456 70.7428 45.3569 70.5583 46.5236L69.3017 53.4524L64.1661 81.1596L54.0661 136.575L49.0075 164.29L47.7483 171.21L47.12 174.674L46.9524 175.541C46.9007 175.832 46.8927 176.268 46.8714 176.625C46.8504 177.347 46.895 178.068 47.0048 178.779C47.4602 181.642 49.0076 184.248 51.3995 186.18C53.7914 188.112 56.8896 189.258 60.1987 189.436L60.1888 189.438ZM60.7443 184.164C58.7146 184.115 56.792 183.468 55.2862 182.328C53.7805 181.189 52.7793 179.622 52.4441 177.88C52.397 177.663 52.3698 177.441 52.363 177.218C52.3325 177.004 52.3212 176.788 52.3292 176.571C52.3493 176.353 52.3156 176.205 52.3574 175.917L52.4927 175.049L53.0439 171.578L54.1688 164.637L58.5614 136.877L67.3272 81.3975L71.6376 53.6123L72.7599 46.6635C72.9323 45.5277 73.1263 44.3215 73.3761 43.23C73.6101 42.1894 74.0291 41.1808 74.6176 40.2413C75.7235 38.3673 77.4969 36.8428 79.6574 35.9088C80.7286 35.4553 81.8696 35.1543 83.0357 35.0175L83.9017 34.9462L84.7809 34.9545C85.3694 34.9563 86.0802 35.009 86.7311 35.0405L118.382 36.6604L134.244 37.4655L142.179 37.8668L144.164 37.9621L145.153 38.0154L145.959 38.0986C147.027 38.2325 148.056 38.5198 149.004 38.9491C150.887 39.8212 152.361 41.2254 153.197 42.9436C153.592 43.7941 153.817 44.7029 153.864 45.6318C153.893 46.1017 153.881 46.5743 153.829 47.0457L153.635 48.7876L152.059 62.7399L148.884 90.5675L142.554 146.254C141.483 155.536 140.463 164.821 139.493 174.107L139.138 177.592L138.955 179.331C138.891 179.902 138.833 180.564 138.766 180.877C138.502 182.458 137.655 183.941 136.355 185.099C135.041 186.266 133.332 187.026 131.507 187.255C131.289 187.313 131.053 187.311 130.832 187.323L130.162 187.333C129.593 187.326 128.863 187.279 128.224 187.253L124.257 187.071L60.7443 184.164Z" fill="#002C42"/>
<path d="M64.0388 178.167L123.694 182.241C126.265 182.542 130.942 180.388 131.278 177.999L146.041 55.528C146.123 54.959 146.075 54.3864 145.902 53.8429C145.729 53.2993 145.433 52.7956 145.033 52.3604C144.632 51.9252 144.133 51.5672 143.565 51.3067C142.998 51.0462 142.372 50.8885 141.725 50.8424L88.4716 47.0068C87.8195 46.9534 87.1562 47.0144 86.5204 47.1863C85.8845 47.3582 85.2887 47.6376 84.7675 48.0082C84.2464 48.3789 83.8104 48.8334 83.4848 49.3453C83.1592 49.8573 82.9506 50.4164 82.871 50.9903L59.6484 173.5C59.569 174.073 59.6199 174.649 59.7983 175.195C59.9766 175.74 60.2789 176.245 60.6874 176.679C61.0959 177.113 61.6026 177.468 62.1779 177.724C62.7533 177.979 63.3858 178.13 64.0388 178.167Z" fill="white"/>
<path d="M85.507 72C85.4205 75.863 83.4381 79.0564 82.7485 82.7628C82.3043 85.1506 80.4052 86.7543 85.1622 86.7543C87.5758 86.7543 89.9894 86.7543 92.4031 86.7543C95.2457 86.7543 97.2303 88.2392 97.2303 85.1506C97.2303 81.3917 101.538 73.3226 98.6095 72.6415C95.8511 72 91.6998 72 86.1965 72" stroke="#ED742F" stroke-width="0.8" stroke-linecap="round"/>
<path d="M86.2499 72.7083C86.1807 73.0929 85.9822 73.601 86.0969 74.0026C86.1739 74.2721 86.7704 73.1622 86.7965 72.9925C86.8355 72.7389 86.3683 72.6949 86.3111 72.9007C86.188 73.344 85.6045 74.7108 86.4073 74.6759C86.9158 74.6538 87.2879 74.1177 87.4917 73.7009C87.5263 73.6301 87.8199 72.7958 87.6972 72.7958C87.3919 72.7958 86.9801 73.3998 86.8533 73.6178C86.6563 73.9567 86.4719 74.4724 86.4117 74.8639C86.3741 75.1083 86.8091 74.9172 86.897 74.8771C87.5314 74.588 87.9974 73.9824 88.305 73.3729C88.3287 73.3259 88.6454 72.6152 88.4974 72.5684C88.2007 72.4747 87.4503 73.4735 87.3081 73.6703C86.9875 74.1138 86.6805 74.7413 86.5341 75.2706C86.5024 75.3852 86.2259 76.254 86.3418 76.3506C86.5823 76.551 87.2665 74.3123 87.2206 74.3873C86.1709 76.1051 85.5557 78.0734 84.9295 79.9753C84.6872 80.7111 85.0786 79.539 85.1306 79.3807C85.3119 78.8283 85.4909 78.2559 85.6028 77.6842C85.6955 77.2103 85.6831 76.7401 85.8127 76.2587C85.8739 76.0313 85.8258 75.8083 85.8608 75.581C85.8875 75.4074 85.9874 75.2499 86.0094 75.0738C86.2037 73.5196 84.9139 78.0216 84.5972 79.5556C84.4055 80.4835 84.1114 81.4336 83.6571 82.2665C83.2519 83.0093 84.1888 80.6571 84.5316 79.8835C85.1738 78.4341 85.7212 76.7788 86.5997 75.4498C86.7482 75.2252 88.1946 73.7083 88.2787 74.571C88.3857 75.6669 87.7418 76.8486 87.3868 77.8503C87.2767 78.1608 87.1978 78.497 87.0545 78.7948C86.8946 79.1268 87.118 78.0556 87.2206 77.7016C87.7723 75.798 88.4434 73.8671 89.5511 72.2055C89.8218 71.7995 89.2272 73.1289 89.0089 73.5653C88.8333 73.9167 88.6615 74.5361 88.3356 74.7896C88.1714 74.9173 88.1353 74.7487 88.1563 74.606C88.2165 74.1968 88.4764 73.6731 88.7684 73.3729C89.4764 72.6453 89.4996 73.9043 89.4593 74.3436C89.4223 74.7467 89.3314 75.1642 89.1314 75.5198C88.7922 76.1227 89.1991 74.1071 89.4768 73.4735C89.6662 73.0413 90.0388 72.1646 90.6923 72.4023C90.9135 72.4827 90.8954 73.0424 90.8934 73.2155C90.8879 73.7115 90.7392 74.2504 90.3425 74.5797C89.7968 75.0328 89.7953 74.1903 89.7916 73.8277C89.7875 73.4249 89.7231 72.8931 90.1239 72.6471C90.8239 72.2176 91.2499 73.0516 91.4007 73.6134C91.5321 74.1033 91.6947 74.7028 91.5493 75.205C91.4368 75.5937 90.9154 75.7321 90.7404 75.3274C90.5995 75.0015 90.3988 74.1528 90.7098 73.8714C91.0062 73.6033 91.7739 73.7181 92.1221 73.7402C92.9494 73.7928 93.6467 74.1486 94.3039 74.6322C94.3701 74.6809 95.1927 75.2259 94.7762 75.3362C93.8716 75.5756 92.6395 75.4122 91.7155 75.3668C91.0777 75.3354 89.7694 75.2622 89.6167 74.4398C89.4336 73.4539 90.173 72.8147 91.1208 72.7258C92.1705 72.6274 92.796 73.6664 93.4469 74.3174C93.7327 74.6032 92.76 74.1508 92.6993 74.125C92.0883 73.8658 91.466 73.6297 90.8672 73.3423C90.0454 72.9478 92.0961 72.7803 92.2926 72.787C93.4324 72.826 94.3023 74.0332 94.575 75.0694C94.6065 75.189 93.8412 75.1474 93.7661 75.1438C93.1973 75.116 92.8033 74.8298 92.3495 74.5273C92.2525 74.4626 91.8466 74.3897 91.8466 74.2387C91.8466 73.9351 92.5809 73.5485 92.7867 73.4298C93.322 73.121 94.0673 73.0595 94.6712 73.1368C95.1939 73.2037 95.6439 73.4669 96.1491 73.5566C96.322 73.5873 97.4611 73.8445 97.4084 74.0026C97.2541 74.4654 96.6143 74.6682 96.2016 74.7852C95.4855 74.9883 94.9534 74.8034 94.3564 74.4005C93.8086 74.0307 93.0042 73.5951 92.59 73.0625C92.5257 72.9799 92.4676 72.9444 92.5812 72.9444C93.0671 72.9444 93.5789 72.897 94.0591 72.9794C94.9258 73.1283 95.7688 73.4088 96.6388 73.5566C97.027 73.6225 97.387 73.6528 97.78 73.6528C97.8047 73.6528 98.0719 73.6497 98.038 73.6921C97.8589 73.916 97.0866 73.6003 96.9099 73.5303C96.5328 73.3809 96.1999 73.2488 95.913 72.9619C95.7667 72.8157 95.7295 72.787 95.5195 72.787C95.1179 72.787 94.7143 72.7088 94.3739 72.9444C93.9328 73.2498 94.1667 73.2556 94.4701 73.5347C95.0377 74.0569 95.3107 74.1885 96.0923 74.0419C96.4065 73.983 96.7215 73.9033 97.0323 73.8277C97.1649 73.7954 97.5529 73.7315 97.1897 73.7315C96.9975 73.7315 96.342 73.8189 96.324 73.4954C96.2864 72.8193 97.4309 73.3347 97.78 73.4123C98.28 73.5234 98.5445 73.6456 98.7463 74.125C99.0028 74.734 98.6097 75.6113 98.4097 76.1713C98.1842 76.8025 98.1079 77.4525 97.9156 78.0777C97.9082 78.1018 97.8971 78.4208 97.8806 78.4187C97.6888 78.3948 98.0156 77.8244 98.038 77.7803C98.1446 77.5713 98.2934 77.2882 98.4315 77.0982C98.4862 77.0231 98.6064 76.7864 98.6064 76.696C98.6064 76.3941 98.5584 77.3066 98.449 77.588C98.3072 77.9527 98.1497 78.3163 98.0205 78.6854C97.8387 79.2048 97.8561 79.7362 97.6795 80.2464C97.569 80.5655 97.5972 80.8841 97.5046 81.2083C97.4186 81.5093 97.25 81.8018 97.1941 82.1091C97.0716 82.7831 97.0707 83.4119 96.8924 84.0854C96.7614 84.5804 96.4914 84.9902 96.3983 85.5021C96.2934 86.0793 96.1395 86.2454 95.5195 86.2454C94.7482 86.2454 94.0327 86.088 93.2589 86.088C92.5236 86.088 91.7919 86.0093 91.0683 86.0093C90.2177 86.0093 89.3781 85.8518 88.5323 85.8518C87.6922 85.8518 86.7315 85.8308 85.9176 85.5982C85.4987 85.4786 84.6206 85.4275 84.2036 85.5764C83.721 85.7488 82.896 85.668 82.3934 85.6944C81.9564 85.7174 82.4804 85.7711 82.6296 85.8125C83.0278 85.9231 83.5171 85.8518 83.9282 85.8518C84.3734 85.8518 84.8065 85.916 85.2443 85.9306C85.5084 85.9394 85.9558 85.8288 86.1537 86.0267C86.1979 86.0709 86.5435 86.3241 86.5035 86.3241C85.6416 86.3241 84.5613 86.6309 83.7314 86.3197C83.3297 86.1691 82.6701 85.9623 82.3628 85.6551C82.1101 85.4023 82.7867 84.4607 82.905 84.2428C83.3057 83.5046 83.4323 82.5536 83.8888 81.8554C84.3669 81.1242 83.3708 83.5254 83.163 84.374C83.1558 84.4034 82.8978 85.2981 83.1455 85.0954C83.5441 84.7693 84.1467 84.3435 84.3129 83.8449C84.5644 83.0906 84.4703 82.2767 84.6321 81.5057C84.8056 80.6791 84.9659 79.8068 85.3842 79.0658C85.4907 78.8771 85.6113 78.6991 85.699 78.5018C85.7365 78.4173 85.7439 79.3291 85.7296 79.4419C85.5675 80.7209 84.6679 84.4882 84.9207 83.224C85.1792 81.9316 85.8067 80.6718 86.2587 79.4419C86.7334 78.1501 87.1654 76.8426 87.6141 75.5417C87.7611 75.1156 87.9102 74.7198 87.9639 74.2737C87.9649 74.2655 88.0353 73.9122 88.0251 73.9938C87.9744 74.4 87.7406 74.8115 87.5879 75.1831C87.1938 76.1422 86.8064 77.095 86.3461 78.0252C86.2471 78.2253 86.1367 78.3896 86.0182 78.5674C85.817 78.8692 86.1344 77.8416 86.2893 77.5136C86.3435 77.3989 86.9244 76.1436 86.9539 76.5867C86.9831 77.0253 86.9581 77.4711 86.8796 77.9028C86.8665 77.9749 86.6814 78.7646 86.932 78.5411C87.2221 78.2826 88.6811 75.3173 88.9871 75.4192C89.1355 75.4687 87.7412 78.6684 87.6054 79.0658C87.361 79.7808 87.4992 79.269 87.6753 78.8122C88.2821 77.239 89.1602 75.7278 90.0977 74.3261C90.1151 74.3 90.7658 73.347 90.8497 73.4429C91.1697 73.8085 90.3496 75.3834 90.1939 75.7428C89.7448 76.7792 88.5649 79.9473 88.8559 78.856C89.1667 77.6903 89.9079 76.5258 90.6224 75.5592C90.6943 75.4619 90.8744 75.1234 90.7798 75.5067C90.5617 76.3894 90.0992 77.2239 89.7129 78.0427C89.5635 78.3594 89.2622 79.3171 89.2188 78.9696C89.1954 78.782 89.4616 78.4354 89.5467 78.2963C89.9237 77.6803 90.3305 77.082 90.7186 76.473C91.1726 75.7605 91.611 74.9903 92.2139 74.3873C92.3733 74.228 92.3865 74.4018 92.367 74.5579C92.3048 75.0552 92.0423 75.5257 91.8379 75.9745C91.5333 76.6433 91.2819 77.3717 90.9109 78.0077C90.6129 78.5186 90.9863 77.396 91.0334 77.2994C91.2482 76.8588 91.5267 76.188 91.9166 75.874C92.0273 75.7848 92.2359 75.699 92.2314 75.9089C92.2185 76.5156 91.9107 77.1187 91.6455 77.6492C91.578 77.7841 91.397 78.2743 91.2214 78.3182C91.0705 78.3559 91.1745 77.717 91.1864 77.671C91.3209 77.1538 92.6404 75.1 93.2502 76.2281C93.3862 76.4797 94.0714 78.2122 93.1759 77.8678C92.4272 77.5799 92.8545 75.8933 93.6656 75.8565C94.5769 75.8151 94.2864 77.4639 93.9235 77.894C93.5059 78.389 93.2047 78.3028 93.189 77.6273C93.1644 76.57 93.3871 75.4677 94.0722 74.6322C95.2313 73.2187 95.504 76.56 95.5326 77.1463C95.5385 77.2668 95.5188 77.9625 95.3446 77.4874C95.2003 77.0939 95.0694 76.2824 95.3533 75.9308C95.5679 75.6651 96.5547 75.077 96.289 75.874C96.1684 76.236 94.6092 77.7288 94.7674 76.7222C94.9181 75.7635 96.0256 75.463 96.8312 75.463C97.8615 75.463 97.5791 77.4665 96.9143 77.4087C96.2345 77.3496 96.6634 74.3177 97.2072 73.9239C97.4961 73.7147 97.8981 73.8126 97.8981 74.2037C97.8981 74.437 97.7693 74.6514 97.6926 74.8814C97.5614 75.2749 97.3072 75.5947 97.0761 75.9308C96.9509 76.1129 96.9521 76.2867 96.8706 76.4905C96.7581 76.7717 96.6503 77.081 96.4814 77.3344C96.3824 77.4829 96.618 76.4707 96.7175 76.3025C96.9491 75.9108 97.7664 74.6481 98.3703 74.7546C98.6193 74.7986 97.4372 77.2979 97.3559 77.5049C96.964 78.5025 96.699 79.557 96.2497 80.5306C96.1224 80.8064 96.0402 80.44 96.0267 80.3076C95.9538 79.5946 96.0296 78.86 96.2278 78.1739C96.4734 77.3236 96.7836 77.5777 96.7 78.375C96.6344 79.0018 96.2831 79.6737 95.8037 80.0846C95.4106 80.4216 94.6594 80.8235 94.4482 80.124C94.3017 79.6385 94.2335 78.7859 94.4439 78.305C94.5197 78.1318 94.8898 77.702 95.091 77.9946C95.219 78.1808 95.1591 78.6318 95.1434 78.8472C95.1152 79.2357 94.5739 79.5265 94.2165 79.5381C93.4246 79.5636 93.7913 76.1035 94.8898 76.25C95.4046 76.3186 95.3079 77.6189 95.2921 77.9465C95.2456 78.9116 94.9112 79.7679 94.164 80.4038C93.158 81.26 92.6299 80.2233 92.5244 79.2495C92.4492 78.556 92.4841 77.8711 92.638 77.1901C92.6424 77.1706 92.8255 76.1484 93.0928 76.4424C93.4925 76.8821 93.3482 77.9265 93.3333 78.4624C93.3119 79.2305 92.9374 79.7616 92.2402 80.0715C91.0153 80.6159 91.3453 77.8521 91.9166 77.999C92.2836 78.0933 92.2887 78.9964 92.297 79.267C92.3188 79.9743 91.9945 80.5966 91.3482 80.9198C91.0613 81.0632 90.5678 81.2502 90.2551 81.0772C89.8691 80.8636 89.8932 80.1773 89.879 79.8135C89.8499 79.062 89.7473 77.9352 90.2594 77.295C90.5166 76.9735 90.578 78.313 90.5786 78.41C90.5823 78.9745 90.5865 79.8266 90.0889 80.2289C89.5864 80.6352 89.2824 79.99 89.162 79.608C89.1395 79.5369 88.9713 78.472 89.0395 78.5062C89.4795 78.7262 89.6877 80.5472 89.0789 80.6487C88.0738 80.8162 88.2259 77.3914 88.5761 76.8184C88.7873 76.4728 88.9262 77.2812 88.9433 77.3518C89.0764 77.8998 89.163 78.5196 89.0658 79.0833C89.0349 79.2626 88.7958 79.661 88.5498 79.5381C88.2842 79.4052 88.4536 78.2035 88.4536 77.9378C88.4536 77.9104 88.5312 77.3741 88.5936 77.6579C88.6686 77.9999 88.6083 78.4273 88.5936 78.7685C88.5634 79.4652 88.5332 80.1839 88.34 80.8585C88.1295 81.593 87.6814 82.4295 87.0982 82.9398C86.4345 83.5205 86.3718 82.4803 86.3461 81.9779C86.3208 81.4825 86.1945 80.4667 86.5691 80.0453C86.7769 79.8115 87.1063 80.0238 87.2294 80.2289C87.4158 80.5397 87.5645 80.9495 87.5004 81.3176C87.4628 81.5343 86.9722 81.8883 86.814 81.6193C86.4695 81.0338 86.6397 79.9408 86.8183 79.3282C86.9196 78.981 87.3277 78.2032 87.6841 78.821C87.9719 79.3199 88.1367 80.2147 87.9377 80.7711C87.7813 81.2083 87.4716 81.1611 87.343 80.7449C87.2225 80.3546 87.2595 79.8776 87.2906 79.4768C87.3147 79.1653 87.4092 78.7268 87.7847 78.6942C88.5383 78.6286 88.7983 80.4584 88.8909 80.9678C88.9848 81.4844 88.8702 81.8886 88.458 82.2184C88.012 82.5752 88.2269 81.1509 88.2831 81.0072C88.4886 80.482 88.8529 79.8704 89.4768 79.8704C90.1018 79.8704 90.4729 80.5001 90.736 80.9897C90.8909 81.2779 91.5877 82.4006 91.4094 82.7474C91.1712 83.2107 90.5281 82.4164 90.4387 82.2315C90.1792 81.6948 89.9596 79.7103 91.0902 80.0453C91.4986 80.1663 91.6284 80.8767 91.6717 81.2346C91.7261 81.6831 91.3246 81.8465 90.9634 81.991C90.081 82.344 90.0593 81.6143 90.0627 80.8585C90.0653 80.2761 90.2122 79.0204 90.9547 78.8647C91.6438 78.7202 91.9911 79.5227 92.2751 80.0103C92.7845 80.8848 93.2773 81.7688 93.788 82.6425C94.0262 83.05 94.284 83.5513 94.3477 84.0285C94.4426 84.7408 93.1877 83.6632 93.0797 83.5388C92.6764 83.0747 91.9862 81.7319 92.8304 81.2914C93.3255 81.0331 93.8932 81.3861 94.2165 81.7418C94.3354 81.8726 94.0744 81.8885 93.9629 81.8992C93.3109 81.9619 93.4094 80.7532 93.4469 80.3688C93.484 79.9891 93.8253 78.034 94.4745 79.1795C94.7046 79.5856 94.8564 80.1004 94.903 80.5656C94.9299 80.8349 94.7813 80.8171 94.5444 80.8935C94.2486 80.989 93.7706 81.0602 93.5431 80.7798C93.2667 80.4391 93.4048 79.6749 93.7093 79.3981C94.5135 78.6671 96.0327 79.1357 96.5251 79.9928C96.7473 80.3795 96.9817 81.0979 96.8443 81.5494C96.5365 82.5607 95.3812 82.3709 94.6931 81.921C94.1817 81.5867 93.9553 81.0957 94.0853 80.4825C94.1501 80.1771 94.3805 79.8563 94.7018 79.8004C95.286 79.6988 95.7228 80.7478 96.0879 81.0946C96.2162 81.2165 96.3257 81.2972 96.4027 81.0946C96.5439 80.7231 96.7314 80.3741 96.8924 80.0103C96.9053 79.9811 97.3571 79.04 97.2204 79.1008C96.8967 79.2446 96.6631 80.0077 96.5251 80.3032C96.338 80.7042 96.2354 81.0976 95.9349 81.4357C95.628 81.7809 95.2197 81.6692 94.8286 81.8555C94.3541 82.0814 93.8568 82.3899 94.0766 81.5231C94.1326 81.3023 94.2922 80.9445 94.5488 80.8979C94.7696 80.8577 94.7434 81.405 94.7368 81.5363C94.6947 82.3791 94.0538 83.8637 93.0578 83.9586C92.1939 84.0409 91.9083 83.5154 91.5187 82.8174C91.1629 82.18 90.6513 81.6161 90.2288 81.0203C89.9831 80.6738 89.7535 80.1519 89.4243 79.8747C89.153 79.6463 88.6458 79.6918 88.3225 79.713C87.5086 79.7662 86.8099 80.6244 86.3286 81.2083C85.839 81.8024 85.2637 82.5508 84.6146 82.9835C84.3771 83.1419 84.0733 83.0909 83.8495 83.2153C83.5148 83.4012 83.6872 83.7189 83.727 84.0373C83.764 84.3329 83.8982 84.4898 84.1861 84.5751C84.3554 84.6253 84.6702 84.75 84.8333 84.75C84.9628 84.75 85.3991 84.8179 85.4629 84.7063C85.6257 84.4213 85.8564 84.1064 85.8564 83.7662C85.8564 83.4143 85.1457 84.2553 85.0694 84.374C84.8067 84.7825 85.0564 84.4586 85.1831 84.2078C85.4737 83.6322 85.6804 83.0397 85.9351 82.4501C86.1813 81.8803 86.4426 81.3657 87.1113 81.3657C87.8023 81.3657 87.7844 82.871 87.7016 83.2852C87.5823 83.8816 86.6434 84.7081 86.0313 84.2953C85.4112 83.8771 85.7474 81.2749 86.5035 81.0859C88.0186 80.7071 87.9206 83.5909 87.8983 84.3827C87.8848 84.8644 87.7818 85.693 87.1987 85.8387C86.5434 86.0026 86.5715 84.4693 86.5779 84.1553C86.5852 83.7915 86.6 82.5992 87.0545 82.4064C87.3933 82.2626 87.9576 82.462 88.2088 82.695C88.5032 82.968 89.4877 83.7742 89.127 84.2953C89.0289 84.4369 88.7273 84.5164 88.5629 84.5008C87.8199 84.43 87.9115 83.1043 87.9115 82.6206C87.9115 81.9155 87.9342 80.7116 88.6985 80.3295C89.3067 80.0254 89.9891 80.5783 90.2638 81.0728C90.7478 81.944 91.3773 83.1984 90.6573 84.1204C90.3921 84.46 89.7673 85.0827 89.3194 84.6888C88.5796 84.0382 88.7294 82.5934 88.7859 81.7243C88.8071 81.3989 88.9157 80.5469 89.3281 80.4344C89.8744 80.2854 90.3272 80.9511 90.4912 81.3701C90.725 81.9677 90.7543 82.6898 90.7317 83.3246C90.7192 83.6727 90.6437 84.3822 90.3425 84.6188C89.3113 85.429 89.3981 82.0401 89.3981 81.7418C89.3981 81.5876 89.2465 80.7892 89.6342 80.911C89.9762 81.0185 90.1018 81.6841 90.1851 81.9779C90.3001 82.3833 90.4616 83.0148 90.3382 83.447C90.2975 83.5892 90.1322 83.5426 90.0714 83.4645C89.9796 83.3465 90.028 83.761 90.0233 83.9105C90.01 84.3359 89.9647 84.7568 89.9097 85.1785C89.8445 85.6778 89.7213 86.2391 89.8091 86.7438C89.8639 87.0588 90.3254 86.967 90.5524 86.9187C91.363 86.7465 92.127 86.3833 92.3713 85.5545C92.505 85.1012 92.5744 84.58 92.7561 84.1466C92.8565 83.9071 93.0534 83.7241 93.1584 83.4907C93.4133 82.9243 92.4791 82.8611 92.1702 82.8611C91.2892 82.8611 91.2023 83.899 91.0159 84.6276C90.9892 84.7318 90.7816 85.2551 90.9547 85.3359C91.1743 85.4384 91.737 85.4315 91.9647 85.3534C92.834 85.0554 93.0393 83.3729 93.0184 82.5813C93.01 82.2618 92.4413 82.9084 92.2664 83.1759C91.8192 83.8598 91.3233 84.7516 91.2258 85.5808C91.1925 85.8632 91.1869 86.1809 91.2126 86.464C91.2621 87.0079 91.9765 86.0833 92.0303 86.0005C92.5806 85.1539 92.9984 84.2242 93.4601 83.329C93.4821 83.2862 94.0329 82.3331 94.0329 82.6163C94.0329 83.2192 93.697 83.8228 93.5082 84.3827C93.461 84.5226 93.2881 84.8807 93.5869 84.8112C94.1383 84.683 94.703 83.8742 95.0473 83.4732C95.3471 83.124 95.5815 82.6896 95.913 82.3714C95.9317 82.3535 95.4935 83.5046 95.3796 83.7225C95.0491 84.3547 94.7453 84.9988 94.3958 85.6201C94.3228 85.7497 94.0791 86.0933 94.2121 86.0267C94.3296 85.968 94.4912 85.5113 94.5401 85.4234C94.8023 84.9513 95.1014 84.5046 95.4058 84.0592C95.5692 83.8201 96.7351 81.8726 96.5426 83.1235C96.4693 83.6003 96.2818 84.1305 96.1141 84.5838C96.0507 84.7555 95.9425 85.2563 95.7731 85.3621C95.5576 85.4968 95.2848 85.4817 95.021 85.454C94.6346 85.4133 94.3467 85.1551 93.9935 85.0298C93.7027 84.9267 93.406 84.9074 93.1015 84.9074C92.8185 84.9074 92.468 84.8505 92.1921 84.9118C91.9637 84.9625 92.0101 85.537 92.2751 85.537C93.105 85.537 93.6604 85.5293 94.2427 84.8462C94.8745 84.1051 94.9991 83.0451 95.1828 82.1265C95.2923 81.579 93.8383 82.1937 93.5737 82.2315C93.267 82.2753 92.9987 82.3102 92.6861 82.3102C92.4191 82.3102 91.6972 82.4493 91.4619 82.214C91.2594 82.0116 91.5524 81.1539 91.6805 80.9547C91.7471 80.8512 91.8387 80.6396 91.9559 80.5874C92.1961 80.4807 91.7549 81.6909 91.7198 81.7724C91.2047 82.9701 90.5699 84.1868 89.8878 85.3009C89.8109 85.4264 89.5572 85.9218 89.3587 85.9218C89.1785 85.9218 88.7784 85.616 88.611 85.537C88.0929 85.2923 87.5286 85.0913 86.9583 85.0036C86.8309 84.984 85.9258 85.0557 85.9482 84.8987C86.0451 84.2207 87.921 84.3668 88.3181 84.4133C89.0018 84.4934 89.65 84.7694 90.2507 85.0998C90.5389 85.2583 90.1408 85.2222 90.019 85.2222C89.2939 85.2222 88.7105 85.342 88.0251 85.572C87.0243 85.9079 86.027 86.0103 84.9907 85.8344C84.4036 85.7347 83.943 85.851 84.0812 85.0561C84.1751 84.5165 84.5687 83.5265 85.1481 83.3333" stroke="#ED742F" stroke-width="0.8" stroke-linecap="round"/>
<path d="M85.7778 79.6962C86.5732 77.8247 87.9777 73.3612 89.4156 74.7991C90.4326 75.816 89.9765 78.4387 90.8148 79.6962" stroke="white" stroke-width="1.5" stroke-linecap="round"/>
<path opacity="0.5" d="M89.5555 81.4444C92.7037 89.6296 94.5926 80.8148 94.5926 80.8148" stroke="white" stroke-width="1.5" stroke-linecap="round"/>
<path d="M78.7485 103.392C79.3799 99.9988 80.2664 96.5073 80.478 92.977C80.5105 92.4344 80.9528 91.9994 81.4963 92.0065C86.6997 92.0744 92.014 92.6675 94.6095 93.2711C97.538 93.9522 94.6095 101.444 93.2303 105.78C92.2061 109 91.2222 107.741 88.0741 107.741C85.6604 107.741 83.5758 107.384 81.1622 107.384C76.4052 107.384 78.3043 105.78 78.7485 103.392Z" stroke="#8996A2" stroke-width="0.8" stroke-linecap="round"/>
<path d="M85.0885 96.2649C83.3528 97.1689 83.0422 98.0536 83.0422 99.9727C83.0422 101.438 82.8741 102.644 84.4589 103.261C86.934 104.223 89.2574 103.693 91.07 101.774C92.0241 100.764 91.6996 99.2068 91.6996 97.909C91.6996 96.5862 90.6915 95.979 89.5746 95.6353C87.9365 95.1312 84.892 94.4933 84.1441 96.7371" stroke="#E81818" stroke-width="0.8" stroke-linecap="round"/>
<circle cx="87.4445" cy="99.5556" r="4.40741" fill="#E81818"/>
<path d="M81.7778 97.0327C83.6038 96.6886 85.1746 97.3261 86.8661 97.7976" stroke="white" stroke-width="1.5" stroke-linecap="round"/>
<path d="M74.7486 124.392C75.38 120.999 76.2665 117.507 76.478 113.977C76.5105 113.434 76.9528 112.999 77.4964 113.006C82.6997 113.074 88.014 113.668 90.6096 114.271C93.538 114.952 90.6096 122.444 89.2304 126.78C88.2062 130 87.2223 128.741 84.0741 128.741C81.6605 128.741 79.5759 128.384 77.1622 128.384C72.4053 128.384 74.3044 126.78 74.7486 124.392Z" stroke="#00B0B9" stroke-width="0.8" stroke-linecap="round"/>
<path d="M74 128.426L77.0397 113L90.4138 114.469L91.6296 116.673L88.4815 128.426L74 128.426Z" fill="#00B0B9"/>
<path d="M78.4861 120.123C78.5151 119.994 78.5125 119.926 78.6435 119.926C78.7122 119.926 78.7222 119.936 78.7222 120.005" stroke="white" stroke-width="1.5" stroke-linecap="round"/>
<path d="M80.7685 120.162C80.8736 119.683 81.2506 119.955 80.9653 120.241C80.8449 120.361 80.8078 120.349 80.8078 120.182C80.8078 120.069 80.9646 120.083 81.044 120.083" stroke="white" stroke-width="1.5" stroke-linecap="round"/>
<path d="M82.7755 120.477C82.7804 120.237 82.8323 120.096 83.0509 119.987C83.1732 119.926 83.2477 119.98 83.2477 120.105C83.2477 120.257 83.279 120.435 83.1384 120.538C83.071 120.587 82.9329 120.707 82.9329 120.556" stroke="white" stroke-width="1.5" stroke-linecap="round"/>
<path d="M85.1366 120.713C85.1366 120.587 85.0849 120.285 85.2743 120.243C85.3574 120.224 85.4479 120.486 85.4514 120.556C85.462 120.767 85.3628 120.792 85.1759 120.792" stroke="white" stroke-width="1.5" stroke-linecap="round"/>
<path d="M87.1829 121.382C87.3758 121.226 87.5002 121.063 87.6529 120.873C87.7105 120.801 87.756 120.683 87.8693 120.715C88.01 120.755 87.9975 121.193 87.9612 121.295C87.9057 121.449 87.7039 121.446 87.6354 121.323C87.5691 121.204 87.6157 120.968 87.6157 120.831" stroke="white" stroke-width="1.5" stroke-linecap="round"/>
<path d="M81.3588 117.762C81.3886 117.932 81.383 118.037 81.2014 118.037" stroke="white" stroke-width="1.5" stroke-linecap="round"/>
<path d="M83.169 118.037C83.1737 117.844 83.1962 117.722 83.4051 117.722C83.5191 117.722 83.5191 117.88 83.4051 117.88" stroke="white" stroke-width="1.5" stroke-linecap="round"/>
<path d="M85.6875 118.194C85.7494 118.049 85.81 117.951 85.9805 118C86.1024 118.035 86.0107 118.116 85.9236 118.116C85.7864 118.116 85.6809 117.863 85.8056 117.801" stroke="white" stroke-width="1.5" stroke-linecap="round"/>
<path d="M83.6805 115.519C83.6805 115.443 83.7124 115.318 83.6412 115.282" stroke="white" stroke-width="1.5" stroke-linecap="round"/>
<path d="M80.0995 122.405C80.0374 122.341 79.8493 122.068 80.0602 122.208" stroke="white" stroke-width="1.5" stroke-linecap="round"/>
<path d="M82.5787 122.917C82.8723 122.538 82.6861 123.171 82.5787 122.956" stroke="white" stroke-width="1.5" stroke-linecap="round"/>
<path d="M84.9004 123.271C84.8888 123.199 84.7899 122.925 84.9398 122.917C85.004 122.913 85.0972 122.892 85.0972 122.976C85.0972 123.196 84.7269 123.153 84.5856 123.153" stroke="white" stroke-width="1.5" stroke-linecap="round"/>
<path d="M81.5162 125.435C81.5342 125.351 81.5717 125.077 81.7304 125.123C81.8059 125.144 81.7356 125.265 81.6976 125.28C81.6542 125.297 81.8899 125.553 81.5949 125.553" stroke="white" stroke-width="1.5" stroke-linecap="round"/>
<path d="M67.7485 167.392C68.3799 163.999 69.2664 160.507 69.478 156.977C69.5105 156.434 69.9528 155.999 70.4963 156.006C75.6997 156.074 81.014 156.668 83.6095 157.271C86.538 157.952 83.6095 165.444 82.2303 169.78C81.2061 173 80.2222 171.741 77.0741 171.741C74.6604 171.741 72.5758 171.384 70.1622 171.384C65.4052 171.384 67.3043 169.78 67.7485 167.392Z" stroke="#0B1A2D" stroke-width="0.8" stroke-linecap="round"/>
<path d="M67 171.426L70.0397 156L83.4138 157.469L84.6296 159.673L81.4815 171.426L67 171.426Z" fill="#0B1A2D"/>
<path d="M72.9261 164.838C73.0684 163.77 73.1046 162.349 73.3905 161.349C73.4952 160.982 73.761 160.795 74.0418 160.629C74.5789 160.311 75.0554 159.833 75.5852 159.503C75.885 159.317 76.1645 159.032 76.4704 158.872C76.5416 158.835 76.6116 158.691 76.6877 158.681C76.9301 158.648 77.2077 158.925 77.4296 159C78.0624 159.215 78.6649 159.52 79.227 159.913C79.4259 160.052 79.6308 160.23 79.8176 160.382C79.8885 160.44 80.0691 160.552 80.0881 160.626" stroke="#FF3749" stroke-width="0.8" stroke-linecap="round"/>
<path d="M70.9801 162.255C70.9011 162.848 70.8121 163.377 70.853 163.962C70.8852 164.425 70.9197 164.874 70.9227 165.341C70.9248 165.673 71.095 165.89 71.2819 166.092C71.6394 166.479 71.9131 166.987 72.2621 167.382C72.4596 167.605 72.6194 167.907 72.8276 168.109C72.8761 168.157 72.8999 168.293 72.9583 168.319C73.1441 168.4 73.4268 168.229 73.6204 168.215C74.1724 168.174 74.7204 168.051 75.2555 167.845C75.4449 167.773 75.6477 167.669 75.8305 167.581C75.8999 167.548 76.0686 167.494 76.1002 167.436" stroke="#FF3749" stroke-width="0.8" stroke-linecap="round"/>
<path d="M76.4743 161.049C77.3163 161.816 78.6691 162.814 79.3138 163.742C79.89 164.57 79.1178 166.566 78.9818 167.588C78.8944 168.244 75.0895 170.087 74.8536 169.526" stroke="#FF3749" stroke-width="0.8" stroke-linecap="round"/>
<path d="M70.7485 146.022C71.3799 142.628 72.2664 139.137 72.478 135.607C72.5105 135.064 72.9528 134.629 73.4963 134.636C78.6997 134.704 84.014 135.297 86.6095 135.901C89.538 136.582 86.6095 144.074 85.2303 148.41C84.2061 151.63 83.2222 150.37 80.0741 150.37C77.6604 150.37 75.5758 150.014 73.1622 150.014C68.4052 150.014 70.3043 148.41 70.7485 146.022Z" stroke="#494848" stroke-width="0.8" stroke-linecap="round"/>
<path d="M70 150.056L72.8621 135.531C72.9625 135.021 73.4362 134.673 73.9525 134.73L86.4138 136.099L87.6296 138.303L84.4815 150.056L70 150.056Z" fill="#494848"/>
<path d="M81.3334 141.373C81.1277 140.127 80.1109 139.667 79.0866 139.667C78.4219 139.667 77.761 139.737 77.3183 140.366C76.9321 140.916 76.496 141.519 76.2963 142.185" stroke="#11AEED" stroke-width="1.5" stroke-linecap="round"/>
<path d="M80.3247 146.786C79.805 147.937 78.4053 147.964 77.4156 147.7C76.7733 147.529 76.1528 147.291 75.8871 146.569C75.6553 145.939 75.688 145.399 75.6667 144.704" stroke="#11AEED" stroke-width="1.5" stroke-linecap="round"/>
<path d="M72.3986 134.959L71.8889 139.037L86.3704 135.259L73.4814 134.088C72.9445 134.039 72.4655 134.424 72.3986 134.959Z" fill="#11AEED"/>
<path d="M115.86 42.5555C111.949 42.3924 108.04 42.1121 104.135 41.7144C103.563 41.6549 103.716 40.7532 104.285 40.7637C107.832 40.8216 111.356 41.1712 114.818 41.8087C114.936 41.8381 115.037 41.9071 115.104 42.0031C115.17 42.0991 115.196 42.2157 115.178 42.3313C115.159 42.447 115.098 42.5539 115.004 42.6326C114.91 42.7113 114.791 42.7563 114.668 42.7595C111.177 42.6946 107.704 42.4061 104.271 41.896C103.624 41.7975 103.906 40.8598 104.551 40.949C107.897 41.449 111.283 41.7319 114.686 41.7957L114.536 42.7465C111.163 42.1345 107.729 41.8028 104.274 41.7552L104.425 40.8045C108.216 41.2008 112.021 41.4669 115.839 41.6027C116.497 41.6281 116.489 42.5891 115.841 42.6008L115.86 42.5555Z" fill="#002C42"/>
<path d="M115.341 43.8285C111.82 43.9234 108.321 43.5305 104.956 42.6623C104.848 42.6367 104.754 42.5784 104.687 42.4962C104.62 42.414 104.584 42.3125 104.585 42.207C104.586 42.1016 104.623 41.9981 104.691 41.9123C104.759 41.8265 104.854 41.7631 104.962 41.7318C108.462 40.9446 112.099 41.308 115.266 42.761C115.816 43.0066 115.407 43.7203 114.865 43.6524L104.809 42.4039C104.155 42.3175 104.437 41.3797 105.091 41.4661L115.097 42.7285L114.695 43.6199C111.765 42.2859 108.406 41.9514 105.172 42.6716L105.206 41.7236C108.484 42.5831 111.897 42.9736 115.332 42.8823C115.473 42.8775 115.607 42.9254 115.707 43.0156C115.806 43.1057 115.862 43.2307 115.862 43.3631C115.862 43.4955 115.807 43.6243 115.708 43.7213C115.609 43.8183 115.474 43.8756 115.334 43.8804L115.341 43.8285Z" fill="#002C42"/>
<path d="M26.3017 138.223L21.0416 139.497C20.8145 139.528 20.6024 139.629 20.439 139.785C20.2063 140.06 20.3501 140.459 20.4903 140.769C21.2302 142.333 22.0751 143.847 23.02 145.304C23.2451 145.65 23.6447 146.048 24.0399 145.857C24.2258 145.739 24.3623 145.562 24.4239 145.36L26.5413 140.643C26.9431 139.751 27.1911 138.464 26.2904 138.107" fill="#7EBEE0"/>
<path d="M169.034 116.222C173.018 118.52 176.663 121.29 179.886 124.468C180.073 124.626 180.214 124.827 180.295 125.052C180.328 125.283 180.284 125.52 180.169 125.731C180.054 125.942 179.874 126.117 179.653 126.231C177.834 127.359 175.516 125.831 174.134 124.291C172.164 122.098 170.456 119.704 169.038 117.15" fill="#7EBEE0"/>
<path d="M37.8783 98.7235C37.7742 99.6338 37.9264 100.546 38.3193 101.366C37.5748 100.576 38.6275 98.6535 37.4792 98.3659C37.2599 98.3309 37.0335 98.3431 36.8165 98.4017L22.2991 101.278C22.1436 101.292 21.9921 101.338 21.8562 101.414C21.7202 101.49 21.6034 101.594 21.5145 101.718C21.4787 101.844 21.4727 101.974 21.497 102.1C21.5212 102.227 21.5751 102.345 21.6548 102.447C22.4115 103.853 23.3337 105.393 24.9575 105.777C26.0459 105.934 27.1695 105.81 28.2093 105.415L37.5335 102.755" fill="#7EBEE0"/>
<path d="M178.871 55.4084L182.324 52.9436C183.07 52.4052 184.01 51.8325 184.865 52.1422C185.194 52.3227 185.478 52.5665 185.7 52.8584C185.921 53.1502 186.075 53.484 186.152 53.839L188.724 60.9278C186.548 59.743 184.12 59.005 181.593 58.7605C180.81 58.7771 180.051 58.56 179.423 58.14C179.088 57.7299 178.893 57.2313 178.862 56.7068C178.831 56.1824 178.966 55.6556 179.249 55.1929" fill="#7EBEE0"/>
<path d="M171.286 23.5898L176.342 19.3778C177.159 18.8408 177.783 18.0786 178.124 17.2011C178.492 15.7301 177.238 14.4536 176.091 13.4864C175.958 13.346 175.77 13.2625 175.567 13.2538C175.465 13.2853 175.37 13.3355 175.288 13.4014C175.205 13.4674 175.137 13.5477 175.087 13.6377L171.364 18.8744C170.739 19.6197 170.309 20.4904 170.11 21.4125C170.025 21.8719 170.118 22.339 170.37 22.7286C170.622 23.1181 171.017 23.4041 171.484 23.5344" fill="#7EBEE0"/>
<path d="M54.3905 49.0129L42.5883 44.9979C40.8403 44.3989 38.9307 43.7952 37.1239 44.3211C34.1534 45.1529 32.9923 48.404 32.2328 51.1831C32.1607 51.3514 32.1257 51.5309 32.13 51.7101C32.1342 51.8893 32.1777 52.0645 32.2575 52.2247C32.3962 52.3629 32.5657 52.4704 32.7546 52.5398C32.9435 52.6092 33.1475 52.639 33.3526 52.627L45.9022 53.4768C47.7665 53.752 49.6897 53.5906 51.5046 53.0065C53.257 52.2862 54.6607 50.4351 54.1143 48.7507" fill="#7EBEE0"/>
<path d="M90.9105 17.786L88.0497 9.39987C87.7655 8.10452 87.0438 6.94455 85.9915 6.09164C84.1446 4.91116 81.6497 5.83947 79.5401 6.80964C79.4033 6.8522 79.2763 6.92102 79.1675 7.01169C79.0586 7.10236 78.9703 7.21288 78.9081 7.33614C78.8796 7.47826 78.8848 7.6235 78.9234 7.76126C78.9619 7.89903 79.0329 8.02586 79.1311 8.1325L84.2881 15.3763C84.9683 16.5238 85.9383 17.489 87.1154 18.1896C87.7173 18.5198 88.4315 18.6329 89.1302 18.5086C89.829 18.3842 90.4668 18.0306 90.9296 17.511" fill="#7EBEE0"/>
<path d="M92.0001 67.0357L131.364 69.1614L132.339 59.1258L92.9756 57L92.0001 67.0357Z" fill="#0082C3"/>
<path d="M104.789 65.3558C104.688 65.3503 104.584 65.3394 104.482 65.3236C103.895 65.2297 103.364 64.9419 102.969 64.5041C102.5 63.9699 102.284 63.2488 102.374 62.5182C102.451 61.9406 102.701 61.3931 103.089 60.9502C103.337 60.6668 103.642 60.4403 103.981 60.2871C104.401 60.1041 104.854 60.0203 105.302 60.0421C105.322 60.0431 105.343 60.0443 105.363 60.0454C106.154 60.0939 106.869 60.4939 107.318 61.1396L107.329 61.1557L106.562 62.201L106.523 62.1453L106.496 62.1087L106.442 62.0408L106.397 61.9885C106.19 61.7518 105.758 61.3497 105.193 61.3192L105.167 61.3178C104.433 61.2911 103.786 61.868 103.712 62.6151C103.651 63.2373 103.947 63.9879 104.979 64.06L104.994 64.0608C105.596 64.0933 106.032 63.6643 106.239 63.4057L106.284 63.3476C106.309 63.314 106.368 63.2311 106.465 63.0951L108.417 60.313L109.771 60.3861L109.276 65.4822L108.03 65.4149L108.104 64.6504L107.112 64.5924L106.98 64.5853L106.943 64.5849L106.937 64.5858L106.907 64.6144L106.872 64.6462L106.823 64.6884L106.781 64.7218L106.734 64.7596L106.68 64.7991C106.122 65.1971 105.454 65.3937 104.789 65.3558ZM108.346 62.4315L107.566 63.5496L108.233 63.5856L108.346 62.4315ZM122.101 66.2882C121.39 66.2666 120.735 65.9434 120.294 65.3969L120.227 66.0771L117.431 65.926L117.926 60.8273L119.213 60.8968L118.827 64.8687L119.99 64.9315C119.765 64.4741 119.678 63.9547 119.738 63.4351C119.77 63.0896 119.871 62.7512 120.035 62.4403C120.2 62.1283 120.424 61.8504 120.693 61.623C121.236 61.1547 121.933 60.9204 122.625 60.9731C123.306 61.0099 123.934 61.3168 124.374 61.8283C124.653 62.1446 124.847 62.53 124.938 62.9499L125.107 61.2141L126.276 61.2772L127.945 64.2143L128.221 61.3822L129.517 61.4522L129.021 66.552L127.882 66.4905L126.184 63.5427L125.908 66.3838L124.612 66.3139L124.782 64.5658C124.624 64.9578 124.376 65.3091 124.06 65.5894C123.515 66.0794 122.808 66.3317 122.101 66.2882ZM122.508 62.2422C122.149 62.2197 121.79 62.3425 121.507 62.5838C121.23 62.8212 121.054 63.1585 121.021 63.5185C120.982 63.8988 121.093 64.2722 121.329 64.5569C121.55 64.828 121.872 64.9938 122.224 65.0177C122.577 65.0394 122.93 64.9133 123.202 64.6686C123.485 64.4053 123.661 64.0442 123.691 63.6628C123.765 62.9206 123.236 62.2852 122.508 62.2424L122.508 62.2422ZM114.409 65.7631L113.116 65.6933L113.612 60.5929L114.905 60.6628L114.717 62.5992L116.049 62.6712L116.237 60.7347L117.531 60.8046L117.035 65.9045L115.741 65.8346L115.931 63.8835L114.599 63.8116L114.409 65.7629L114.409 65.7631ZM111.844 65.6246L110.552 65.5548L110.929 61.672L109.923 61.6176L110.042 60.3985L113.345 60.5769L113.227 61.796L112.223 61.7418L111.846 65.6242L111.844 65.6246ZM96.5943 64.801L94.6094 64.6938L95.1051 59.5941L96.9135 59.6918C97.7429 59.7365 98.3228 59.8687 98.8323 60.4077C99.202 60.8066 99.4131 61.3332 99.4276 61.8926L99.6272 59.8383L102.506 59.9937L102.396 61.1155L100.813 61.0318L100.732 61.865L102.103 61.9378L101.996 63.0345L100.625 62.9619L100.535 63.8862L102.119 63.9717L102.01 65.0899L99.1317 64.9344L99.3293 62.9014C99.1972 63.4364 98.8916 63.918 98.4629 64.267C97.847 64.7674 97.3308 64.8406 96.5949 64.8009L96.5943 64.801ZM96.293 60.7605L96.0128 63.6436L96.5326 63.6716C97.0351 63.6988 97.4061 63.6046 97.6669 63.3838C97.9278 63.1631 98.0827 62.807 98.1317 62.3032C98.2217 61.3773 97.7512 60.8393 96.8069 60.7883L96.293 60.7605Z" fill="#FEFEFE"/>
<path d="M81.0414 89.0444C92.8205 89.5552 104.645 89.9094 116.4 90.7006C122.287 91.0968 128.108 91.6789 133.95 92.2952" stroke="#D9DDE1" stroke-width="0.8" stroke-linecap="round"/>
<path d="M77.0414 110.044C88.8205 110.555 100.645 110.909 112.4 111.701C118.287 112.097 124.108 112.679 129.95 113.295" stroke="#D9DDE1" stroke-width="0.8" stroke-linecap="round"/>
<path d="M73.0414 131.044C84.8205 131.555 96.6453 131.909 108.4 132.701C114.287 133.097 120.108 133.679 125.95 134.295" stroke="#D9DDE1" stroke-width="0.8" stroke-linecap="round"/>
<path d="M70.0414 153.044C81.8205 153.555 93.6453 153.909 105.4 154.701C111.287 155.097 117.108 155.679 122.95 156.295" stroke="#D9DDE1" stroke-width="0.8" stroke-linecap="round"/>
<path d="M106.75 77.75C105.753 77.5905 104.683 77.4556 104.493 78.6875C104.339 79.692 104.705 79.9173 105.375 80.625C106.784 82.1122 103.375 83.9145 103.375 82" stroke="#002C42" stroke-width="0.8" stroke-linecap="round"/>
<path d="M106.75 78.75C107.583 78.75 108.417 78.75 109.25 78.75C110.485 78.75 108.8 78.75 108.375 78.75C107.531 78.75 107.625 79.4565 107.625 80.1528C107.625 80.9199 107.375 81.7405 107.375 82.5" stroke="#002C42" stroke-width="0.8" stroke-linecap="round"/>
<path d="M109.75 82.625C109.75 81.4287 109.501 79.3467 110.75 78.6528C111.72 78.1136 112.375 79.015 112.375 79.9375C112.375 80.3522 111.772 80.5438 111.438 80.618C111.253 80.6589 110.223 80.5035 110.688 80.875C111.509 81.5321 111.767 82.6422 112.5 83.375" stroke="#002C42" stroke-width="0.8" stroke-linecap="round"/>
<path d="M113.625 83.375C113.645 82.1891 114.225 81.1752 114.722 80.125C114.9 79.7504 115.278 79.6109 115.5 80.0556C116.003 81.0618 115.882 82.4485 116.5 83.375" stroke="#002C42" stroke-width="0.8" stroke-linecap="round"/>
<path d="M117.25 79.75C117.447 80.5973 117.872 81.493 118.188 82.3125C118.229 82.4207 118.183 83.5838 118.472 83.3472C119.093 82.8395 119.314 82.0837 119.875 81.5625C120.264 81.2014 120.703 80.5708 121 80.125" stroke="#002C42" stroke-width="0.8" stroke-linecap="round"/>
<path d="M120.625 84.375C120.645 83.5227 120.94 82.2051 121.375 81.4445C121.553 81.1335 122.111 80.5295 122.257 81.1875C122.525 82.3935 123.084 84.0013 123.75 85" stroke="#002C42" stroke-width="0.8" stroke-linecap="round"/>
<path d="M114.125 82.125H115.875" stroke="#002C42" stroke-width="0.8" stroke-linecap="round"/>
<path d="M120.875 83H122.5" stroke="#002C42" stroke-width="0.8" stroke-linecap="round"/>
<path d="M100.026 104C100.026 102.847 99.7978 101.095 100.695 100.216C101.148 99.7715 101.813 98.7051 102.606 99.0775C103.267 99.3877 102.95 100.356 102.702 100.816C102.391 101.39 100.792 101.883 100.408 101.275" stroke="#002C42" stroke-width="0.8" stroke-linecap="round"/>
<path d="M105.75 99.875C104.394 100.451 104 101.881 104 103.25C104 103.874 104.807 104.694 105.5 104.347C106.433 103.881 107.125 102.754 107.125 101.722C107.125 100.714 107.354 99.875 106.125 99.875" stroke="#002C42" stroke-width="0.8" stroke-linecap="round"/>
<path d="M108.75 100.25C108.75 100.926 108.762 101.538 108.618 102.188C108.489 102.767 108.24 103.337 108.132 103.931C108.066 104.293 108.103 104.757 108.125 105.125C108.139 105.368 109.278 105.32 109.375 105.125" stroke="#002C42" stroke-width="0.8" stroke-linecap="round"/>
<path d="M110.75 105.5C111.156 104.101 111.523 102.223 112.375 101.007C112.963 100.166 112.911 100.346 113.062 101.257C113.272 102.514 113.75 103.845 113.75 105.125" stroke="#002C42" stroke-width="0.8" stroke-linecap="round"/>
<path d="M111.5 103.625H112.625" stroke="#002C42" stroke-width="0.8" stroke-linecap="round"/>
<path d="M115.25 106.125C115.25 105.152 115.082 103.987 115.278 103.028C115.4 102.432 115.765 101.966 116 101.438C116.149 101.101 116.626 101.015 116.937 101.188C117.438 101.466 117.375 101.741 117.375 102.278C117.375 102.78 117.118 102.991 116.722 103.25C116.584 103.34 115.646 103.52 115.632 103.569C115.563 103.81 116.311 104.661 116.444 104.819C116.881 105.339 117.438 106.125 118 106.5" stroke="#002C42" stroke-width="0.8" stroke-linecap="round"/>
<path d="M96.875 124.875C96.875 123.361 97.204 122.121 97.7222 120.722C97.9393 120.136 98.2849 120.245 98.8472 120.347C99.3769 120.444 99.9614 120.375 100.5 120.375" stroke="#002C42" stroke-width="0.8" stroke-linecap="round"/>
<path d="M97.375 123.125H98.625" stroke="#002C42" stroke-width="0.8" stroke-linecap="round"/>
<path d="M100 125.625C100 124.579 100.028 123.445 100.5 122.5" stroke="#002C42" stroke-width="0.8" stroke-linecap="round"/>
<path d="M100.875 121.188C101.499 121.203 101.034 121.567 101 121.5" stroke="#002C42" stroke-width="0.8" stroke-linecap="round"/>
<path d="M102 126.125C102 124.779 102.011 123.468 102.438 122.188" stroke="#002C42" stroke-width="0.8" stroke-linecap="round"/>
<path d="M101.312 122.187C101.892 122.187 102.498 122.125 103.062 122.281C103.311 122.35 103.676 122.375 103.938 122.375" stroke="#002C42" stroke-width="0.8" stroke-linecap="round"/>
<path d="M103.812 126.688C103.812 125.757 103.822 124.875 104 123.958C104.084 123.526 104.211 123.023 104.597 122.778C104.898 122.586 105.637 122.574 105.799 122.938C105.958 123.297 105.958 123.919 105.59 124.153C105.359 124.3 105.082 124.438 104.799 124.438C104.677 124.438 104.157 124.4 104.281 124.469C104.773 124.742 105.525 124.865 105.924 125.264C106.22 125.561 106.191 126.342 106.122 126.722C106.008 127.347 105.184 127.438 104.701 127.438C104.299 127.438 103.986 127.159 103.812 126.813" stroke="#002C42" stroke-width="0.8" stroke-linecap="round"/>
<path d="M107.125 127.062C107.125 126.233 107.066 125.239 107.312 124.438C107.383 124.209 107.373 123.942 107.5 123.736C107.569 123.624 107.625 123.382 107.625 123.25" stroke="#002C42" stroke-width="0.8" stroke-linecap="round"/>
<path d="M107.625 121.625C107.504 121.713 107.303 121.769 107.312 121.938C107.32 122.061 107.45 121.971 107.5 121.938" stroke="#002C42" stroke-width="0.8" stroke-linecap="round"/>
<path d="M109.25 127.438C109.25 126.625 109.133 125.706 109.281 124.906C109.347 124.553 109.375 124.109 109.375 123.75" stroke="#002C42" stroke-width="0.8" stroke-linecap="round"/>
<path d="M108.062 123.375C109.226 123.375 110.412 123.438 111.562 123.438" stroke="#002C42" stroke-width="0.8" stroke-linecap="round"/>
<path d="M96.8125 142.188C96.2288 142.188 95.7206 142.156 95.2222 142.514C94.7348 142.864 94.3113 143.343 94.0625 143.889C93.6726 144.745 93.296 146.348 94.5764 146.639C95.2418 146.79 95.6201 146.704 96.0625 146.139C96.3227 145.806 96.3125 145.462 96.3125 145.063C96.3125 144.629 95.8234 144.688 95.5 144.688" stroke="#002C42" stroke-width="0.8" stroke-linecap="round"/>
<path d="M97.25 147.375C97.2697 146.35 97.7735 145.219 98.2431 144.323C98.5325 143.77 98.7518 143.136 99.3889 142.924C99.5934 142.855 99.668 142.836 99.691 143.066C99.7537 143.694 99.7873 144.306 99.816 144.937C99.8531 145.754 99.9375 146.556 99.9375 147.375" stroke="#002C42" stroke-width="0.8" stroke-linecap="round"/>
<path d="M97.9375 145.688H99.5625" stroke="#002C42" stroke-width="0.8" stroke-linecap="round"/>
<path d="M101.188 148.125C101.188 147.004 101.482 146.012 101.809 144.948C102.04 144.196 102.394 143.684 103 143.188C103.303 142.94 103.622 142.781 103.781 143.222C103.941 143.665 103.972 144.386 103.747 144.809C103.527 145.221 103.243 145.407 102.799 145.486C102.717 145.501 102.157 145.493 102.174 145.528C102.55 146.322 102.847 147.167 103.125 148" stroke="#002C42" stroke-width="0.8" stroke-linecap="round"/>
<path d="M104.438 148.375C104.452 147.36 104.689 146.297 105.122 145.378C105.343 144.908 105.454 144.324 105.75 143.889C106.051 143.447 106.009 144.851 106.035 145C106.09 145.317 106.104 145.817 106.278 146.09C106.322 146.16 106.375 146.317 106.375 146.399C106.375 146.421 106.41 146.312 106.413 146.306C106.508 146.116 106.635 145.931 106.764 145.764C107.163 145.244 107.593 144.735 108.049 144.264C108.065 144.247 108.398 143.82 108.406 143.823C108.514 143.866 108.438 144.661 108.438 144.781C108.438 146.021 108.438 147.26 108.438 148.5" stroke="#002C42" stroke-width="0.8" stroke-linecap="round"/>
<path d="M109.312 149.562C109.325 148.895 109.406 148.232 109.441 147.566C109.462 147.166 109.623 146.786 109.674 146.389C109.72 146.03 109.763 145.71 109.875 145.375" stroke="#002C42" stroke-width="0.8" stroke-linecap="round"/>
<path d="M109.875 144.188C110.027 144.191 110.239 144.173 110.25 144.375C110.256 144.485 110.229 144.5 110.125 144.5" stroke="#002C42" stroke-width="0.8" stroke-linecap="round"/>
<path d="M110.562 149.812C110.562 148.077 110.838 146.342 111.424 144.701C111.503 144.48 111.561 144.949 111.562 145C111.591 145.803 111.689 146.647 111.878 147.427C111.98 147.845 112.089 148.633 112.469 148.938C112.533 148.989 112.513 148.656 112.514 148.646C112.562 148.107 112.705 147.591 112.889 147.083C113.304 145.939 113.832 144.808 114.312 143.688" stroke="#002C42" stroke-width="0.8" stroke-linecap="round"/>
<path d="M93.8125 163C93.1492 163 92.4427 162.873 91.9965 163.476C91.2094 164.538 90.9375 165.663 90.9375 166.965C90.9375 167.737 91.4892 168.25 92.2639 168.25C93.0778 168.25 93.9121 167.252 94.0625 166.5" stroke="#002C42" stroke-width="0.8" stroke-linecap="round"/>
<path d="M97.0625 163.563C96.6134 163.517 96.5103 163.603 96.2222 163.924C95.9599 164.216 95.686 164.465 95.5 164.816C95.2797 165.232 95.0106 165.82 95 166.299C94.9877 166.851 94.8983 167.846 95.6875 167.934C96.7243 168.049 97.5892 166.611 97.875 165.774C98.0118 165.374 98.1027 164.721 97.9861 164.299C97.9266 164.083 97.7099 164.045 97.625 163.875" stroke="#002C42" stroke-width="0.8" stroke-linecap="round"/>
<path d="M98.5625 168.812C98.5772 167.754 98.76 166.746 98.9757 165.715C99.0668 165.28 99.3274 164.548 99.6562 164.219C99.9169 163.958 100.316 164 100.653 164C100.988 164 100.897 164.882 100.868 165.09C100.797 165.608 100.373 165.964 99.9375 166.187C99.8066 166.255 99.705 166.296 99.5625 166.312C99.4001 166.332 99.653 166.87 99.6736 166.937C99.927 167.763 100.209 168.54 100.549 169.333C100.586 169.421 100.914 170.058 100.75 169.812" stroke="#002C42" stroke-width="0.8" stroke-linecap="round"/>
<path d="M103.687 164.812C103.155 165.007 102.646 165.346 102.278 165.781C101.932 166.19 101.868 166.601 101.785 167.122C101.701 167.648 101.652 168.837 102.299 169.076C103.36 169.469 103.819 168.177 104.028 167.378C104.189 166.762 104.187 166.167 104.187 165.535C104.187 165.155 104.236 164.659 104.062 164.312" stroke="#002C42" stroke-width="0.8" stroke-linecap="round"/>
<path d="M106.875 164.75C106.102 164.75 105.42 164.773 105.312 165.684C105.269 166.057 105.16 166.534 105.278 166.903C105.396 167.27 105.705 167.534 105.875 167.875C106.159 168.442 106.155 168.981 105.556 169.281C104.779 169.67 103.625 169.529 103.625 168.5" stroke="#002C42" stroke-width="0.8" stroke-linecap="round"/>
<path d="M128.162 82.2029C129.448 82.3238 130.734 82.4448 132.02 82.5657C132.366 82.5981 133.474 82.6026 133.615 82.9667" stroke="#00689D" stroke-width="0.8" stroke-linecap="round"/>
<path d="M132.095 80.4383C132.823 81.0403 133.386 81.8642 134.171 82.3913C134.633 82.7011 134.595 82.7288 134.237 83.0252C133.632 83.5261 132.768 84.0211 132.05 84.3262C131.546 84.5403 131.187 84.9504 130.655 85.0739" stroke="#00689D" stroke-width="0.8" stroke-linecap="round"/>
<path d="M125.246 103.116C126.532 103.237 127.818 103.357 129.104 103.478C129.449 103.511 130.557 103.515 130.698 103.879" stroke="#00689D" stroke-width="0.8" stroke-linecap="round"/>
<path d="M129.178 101.351C129.906 101.953 130.469 102.777 131.255 103.304C131.716 103.614 131.678 103.642 131.32 103.938C130.716 104.439 129.852 104.934 129.134 105.239C128.63 105.453 128.27 105.863 127.738 105.987" stroke="#00689D" stroke-width="0.8" stroke-linecap="round"/>
<path d="M122.246 124.116C123.532 124.237 124.818 124.357 126.104 124.478C126.449 124.511 127.557 124.515 127.698 124.879" stroke="#00689D" stroke-width="0.8" stroke-linecap="round"/>
<path d="M126.178 122.351C126.906 122.953 127.469 123.777 128.255 124.304C128.716 124.614 128.678 124.642 128.32 124.938C127.716 125.439 126.852 125.934 126.134 126.239C125.63 126.453 125.27 126.863 124.738 126.987" stroke="#00689D" stroke-width="0.8" stroke-linecap="round"/>
<path d="M119.246 145.116C120.532 145.237 121.818 145.357 123.104 145.478C123.449 145.511 124.557 145.515 124.698 145.879" stroke="#00689D" stroke-width="0.8" stroke-linecap="round"/>
<path d="M123.178 143.351C123.906 143.953 124.469 144.777 125.255 145.304C125.716 145.614 125.678 145.642 125.32 145.938C124.716 146.439 123.852 146.934 123.134 147.239C122.63 147.453 122.27 147.863 121.738 147.987" stroke="#00689D" stroke-width="0.8" stroke-linecap="round"/>
<path d="M115.246 166.116C116.532 166.237 117.818 166.357 119.104 166.478C119.449 166.511 120.557 166.515 120.698 166.879" stroke="#00689D" stroke-width="0.8" stroke-linecap="round"/>
<path d="M119.178 164.351C119.906 164.953 120.469 165.777 121.255 166.304C121.716 166.614 121.678 166.642 121.32 166.938C120.716 167.439 119.852 167.934 119.134 168.239C118.63 168.453 118.27 168.863 117.738 168.987" stroke="#00689D" stroke-width="0.8" stroke-linecap="round"/>
<path d="M25.6452 160.072C35.3101 160.032 43.1125 152.165 43.0724 142.5C43.0322 132.835 35.1647 125.033 25.4998 125.073C15.8349 125.113 8.03254 132.98 8.07269 142.645C8.11283 152.31 15.9803 160.113 25.6452 160.072Z" fill="#BEDEEF"/>
<path d="M29.5501 147.056L22.8578 147.084L22.8531 145.942L26.1535 142.312C26.6298 141.777 26.9674 141.331 27.1665 140.975C27.3701 140.614 27.4711 140.254 27.4696 139.894C27.4676 139.42 27.3316 139.038 27.0615 138.747C26.796 138.456 26.4376 138.312 25.9865 138.314C25.4487 138.316 25.0324 138.482 24.7375 138.811C24.4427 139.141 24.2964 139.59 24.2988 140.16L22.6377 140.167C22.6352 139.561 22.7696 139.015 23.0411 138.531C23.317 138.042 23.7096 137.663 24.2189 137.392C24.7328 137.121 25.3247 136.984 25.9946 136.981C26.9607 136.977 27.7228 137.218 28.2808 137.703C28.8434 138.184 29.1264 138.852 29.13 139.709C29.132 140.206 28.9929 140.728 28.7127 141.276C28.4369 141.82 27.9815 142.439 27.3463 143.135L24.9236 145.749L29.5446 145.73L29.5501 147.056Z" fill="#001018"/>
</g>
<defs>
<clipPath id="clip0">
<rect width="195" height="198" fill="white"/>
</clipPath>
</defs>
</svg>
