<svg width="185" height="202" viewBox="0 0 185 202" fill="none" xmlns="http://www.w3.org/2000/svg">
<g clip-path="url(#clip0)">
<path fill-rule="evenodd" clip-rule="evenodd" d="M156.254 41.7861C158.482 48.4019 159.101 55.4376 160.64 62.2471C162.644 71.1112 166.234 79.6168 171.187 87.2377C176.312 95.1233 183.057 102.467 184.748 111.717C187.183 125.026 178.081 138.082 166.777 145.491C149.131 157.055 126.74 158.506 105.692 156.962C101.466 156.652 97.0646 156.261 93.1241 157.817C85.9593 160.647 82.7213 168.702 79.0108 175.455C76.3734 180.256 73.031 184.85 68.383 187.744C61.4228 192.079 52.2905 191.944 44.7262 188.765C37.1615 185.586 31.0089 179.701 26.0581 173.153C12.4811 155.199 7.11347 131.463 10.8 109.265C14.4861 87.0677 26.98 66.6165 44.5023 52.5209C52.1788 46.3464 61.1174 41.226 70.9176 40.201C79.5608 39.2973 88.3996 41.6203 96.9332 39.9775C105.104 38.4045 112.105 33.384 119.474 29.5188C126.841 25.6535 135.691 22.8786 143.376 26.0832C149.816 28.7695 154.027 35.1698 156.254 41.7861Z" fill="#E7F3F9"/>
<path d="M81.3169 28.5462L79.806 28.2086C79.6817 28.1833 79.5525 28.2072 79.4455 28.2751C79.3385 28.343 79.2619 28.4498 79.2319 28.5729C79.2066 28.6971 79.2305 28.8263 79.2984 28.9334C79.3663 29.0404 79.4731 29.117 79.5962 29.147L81.1071 29.4847C81.2316 29.5125 81.362 29.4898 81.4697 29.4214C81.5773 29.3531 81.6534 29.2448 81.6812 29.1203C81.7091 28.9959 81.6863 28.8655 81.618 28.7578C81.5496 28.6502 81.4413 28.5741 81.3169 28.5462Z" fill="white"/>
<path d="M134.856 179.799L70.0644 188.198C67.109 188.532 64.1316 187.768 61.7855 186.072C59.4395 184.377 57.9164 181.888 57.5506 179.153L40.0218 47.1364C39.6596 44.4 40.4861 41.6418 42.3196 39.4682C44.1531 37.2946 46.8436 35.8836 49.7993 35.5453L106.23 29.087C109.185 28.7523 112.163 29.5166 114.509 31.2122C116.855 32.9079 118.378 35.3963 118.744 38.1315L144.624 168.206C144.987 170.942 144.162 173.699 142.33 175.873C140.499 178.047 137.81 179.459 134.856 179.799Z" fill="#BEDEEF"/>
<path d="M135.222 182.403L75.9503 190.628L72.2499 191.14C71.6104 191.218 71.0554 191.313 70.3554 191.397L69.112 191.486C68.6947 191.501 68.2953 191.482 67.8844 191.47C64.5736 191.329 61.4125 190.155 58.9157 188.139C56.3843 186.13 54.6838 183.37 54.1036 180.33C53.9391 179.502 53.9003 179.011 53.8104 178.445L53.5869 176.72L53.1378 173.279C51.9507 164.087 50.8084 154.887 49.711 145.677L43.0168 90.5876L39.6775 63.0309L38.0219 49.2965L37.8078 47.5737C37.7276 46.8931 37.7022 46.2078 37.7319 45.5236C37.8456 42.7464 38.9685 40.0855 40.919 37.9718C42.8694 35.8581 45.533 34.4154 48.4785 33.8773L49.5729 33.7112L50.5034 33.6115L52.3624 33.4209L59.7921 32.6023L74.6889 31.055L104.46 27.9738C105.095 27.9135 105.667 27.8309 106.358 27.7823L107.358 27.7242L108.413 27.7598C109.809 27.867 111.177 28.1835 112.463 28.6968C115.036 29.7351 117.156 31.5454 118.482 33.836C119.132 34.969 119.545 36.2058 119.699 37.4812C119.85 38.6893 120.129 39.7778 120.344 40.9261L121.772 47.7349L127.587 74.9547L139.057 129.407L144.799 156.639L146.23 163.439L146.944 166.843L147.132 167.694C147.191 167.98 147.214 168.414 147.247 168.767C147.293 169.485 147.277 170.204 147.2 170.92C146.876 173.798 145.519 176.494 143.346 178.575C141.173 180.656 138.309 182.003 135.212 182.401L135.222 182.403ZM134.511 177.193C136.412 177.008 138.192 176.237 139.562 175.003C140.933 173.768 141.816 172.143 142.067 170.388C142.103 170.168 142.121 169.946 142.119 169.724C142.14 169.509 142.143 169.293 142.128 169.078C142.101 168.863 142.127 168.713 142.078 168.429L141.919 167.575L141.277 164.158L139.972 157.329L134.852 130.007L124.632 75.4023L119.588 48.0498L118.285 41.2122C118.082 40.0938 117.857 38.9069 117.583 37.8377C117.326 36.8183 116.897 35.8429 116.311 34.9476C115.207 33.1571 113.489 31.7589 111.429 30.9739C110.409 30.5943 109.328 30.371 108.229 30.3127L107.415 30.2995L106.591 30.3664C106.039 30.4075 105.374 30.5074 104.765 30.5822L75.1446 34.3056L60.3004 36.1649L52.8737 37.0935L51.0157 37.3209L50.0903 37.4399L49.3381 37.5764C48.3409 37.7809 47.3865 38.1354 46.5129 38.6256C44.7792 39.6188 43.448 41.114 42.726 42.879C42.3861 43.7514 42.2073 44.6705 42.1969 45.5977C42.1873 46.0671 42.2155 46.5364 42.2812 47.0018L42.5256 48.7218L44.5065 62.4961L48.4874 89.9664L56.4314 144.94C57.7701 154.102 59.0616 163.27 60.3058 172.443L60.7643 175.886L60.9993 177.604C61.0797 178.168 61.1579 178.823 61.2314 179.13C61.5366 180.684 62.3843 182.103 63.6446 183.168C64.9192 184.241 66.5488 184.883 68.2684 184.99C68.4749 185.033 68.696 185.014 68.9036 185.012L69.5326 184.977C70.0656 184.933 70.749 184.837 71.3467 184.768L75.0606 184.322L134.511 177.193Z" fill="#002C42"/>
<path d="M131.205 171.447L75.4141 179.481C73.0144 179.951 68.5511 178.121 68.1494 175.766L49.8892 54.9202C49.7926 54.3596 49.8164 53.7868 49.9591 53.2346C50.1018 52.6824 50.3607 52.1615 50.721 51.7019C51.0813 51.2422 51.5358 50.8528 52.0587 50.5558C52.5815 50.2588 53.1624 50.0601 53.7681 49.9711L103.565 42.6021C104.174 42.5054 104.798 42.5219 105.401 42.6504C106.003 42.779 106.572 43.0172 107.074 43.3512C107.576 43.6851 108.001 44.1081 108.325 44.5957C108.649 45.0832 108.865 45.6255 108.96 46.1911L135.154 166.512C135.249 167.076 135.222 167.652 135.074 168.207C134.927 168.762 134.662 169.284 134.294 169.743C133.927 170.202 133.464 170.589 132.934 170.882C132.404 171.174 131.816 171.366 131.205 171.447Z" fill="white"/>
<path d="M66.9625 91.9839C74.1093 90.7587 81.2709 89.6215 88.4471 88.5724C92.0335 88.0452 95.6237 87.5417 99.2178 87.062C100.968 86.8277 102.734 86.5214 104.496 86.386C105.216 86.287 105.949 86.3728 106.626 86.6353C106.948 86.8161 107.221 87.0714 107.424 87.3797C107.626 87.6881 107.752 88.0405 107.79 88.4075C108.171 90.1489 108.441 91.9208 108.765 93.6702L109.257 96.3576C109.367 96.8005 109.44 97.2513 109.478 97.7059C109.5 98.2262 109.189 98.4455 108.76 98.645C107.284 99.2378 105.713 99.5574 104.123 99.5881C102.412 99.7075 100.703 99.8204 98.9948 99.9609C92.0473 100.56 85.1352 101.516 78.2858 102.824C76.5723 103.151 74.8588 103.499 73.1452 103.868C72.3123 104.083 71.4687 104.255 70.6179 104.382C69.7578 104.478 68.9563 104.313 68.5608 103.469C68.2476 102.694 67.9963 101.895 67.8092 101.081C67.5651 100.236 67.3406 99.395 67.1241 98.5494C66.9076 97.7037 66.7173 96.8021 66.5401 95.9652C66.3022 95.109 66.1344 94.2348 66.0384 93.3513C66.0014 92.6557 66.3497 91.5583 67.2618 91.7828C67.3486 91.8022 67.4395 91.7863 67.5146 91.7386C67.5897 91.691 67.6428 91.6154 67.6622 91.5286C67.6816 91.4418 67.6658 91.3509 67.6181 91.2758C67.5704 91.2007 67.4949 91.1476 67.4081 91.1282C67.0919 91.0613 66.7628 91.0924 66.4647 91.2174C66.1667 91.3423 65.9138 91.5551 65.7397 91.8275C65.5421 92.1788 65.4167 92.5661 65.3708 92.9666C65.325 93.3671 65.3597 93.7727 65.4728 94.1596C65.8096 95.9738 66.2534 97.7706 66.7249 99.5667C66.9726 100.488 67.2283 101.404 67.4854 102.314C67.6262 103.083 67.9503 103.806 68.4301 104.422C69.624 105.631 71.721 104.828 73.1226 104.522C80.4973 102.919 87.9563 101.732 95.4643 100.966C97.3292 100.771 99.2079 100.607 101.074 100.467C102.828 100.337 104.601 100.307 106.342 100.022C107.139 99.9003 107.921 99.6924 108.673 99.4023C109.316 99.1404 109.994 98.811 110.122 98.0559C110.156 97.6346 110.114 97.2105 109.996 96.8044L109.733 95.3367L109.192 92.4048L108.678 89.5406C108.589 88.7287 108.39 87.9327 108.086 87.1747C107.37 85.7362 105.692 85.5879 104.286 85.7274C102.425 85.9026 100.565 86.2016 98.7093 86.4467C96.8538 86.6918 94.8491 86.9585 92.9223 87.2152C85.1858 88.3315 77.4618 89.5354 69.7504 90.8269L66.8935 91.3087C66.4722 91.3795 66.5005 92.0525 66.9174 92.0013L66.9625 91.9839Z" fill="#8996A2"/>
<path d="M76.2994 131.559C76.2994 131.559 73.4659 132.705 73.1285 134.05C73.0174 134.72 73.0779 135.399 73.3043 136.024L75.5151 144.405C75.5746 144.761 75.7408 145.086 75.9924 145.338C76.3088 145.527 76.686 145.601 77.0618 145.547C79.0642 145.446 81.544 145.158 83.432 144.34C93.6674 139.956 74.0416 146.451 84.7696 143.674C85.7945 143.411 86.9621 143.034 87.3691 142.045C87.5321 141.519 87.5575 140.965 87.4428 140.439C87.0388 137.513 86.488 134.621 85.7906 131.764C85.6887 131.102 85.4096 130.486 84.9819 129.98C84.7587 129.737 84.449 129.588 84.1118 129.562C83.7747 129.536 83.4337 129.634 83.1542 129.838" fill="#1877F2"/>
<path d="M77.7223 40.0016C81.3838 39.5784 85.0385 39.0387 88.6864 38.3826C89.2205 38.2852 89.0443 37.3984 88.5112 37.4468C85.1873 37.741 81.8953 38.324 78.6724 39.1892C78.5627 39.2263 78.4701 39.3017 78.4116 39.4016C78.3531 39.5016 78.3326 39.6193 78.3539 39.7331C78.3752 39.8469 78.4368 39.9492 78.5275 40.0212C78.6182 40.0932 78.7319 40.1301 78.8476 40.125C82.1181 39.8275 85.3647 39.3088 88.5652 38.5722C89.1682 38.4311 88.87 37.5171 88.269 37.6488C85.1493 38.3695 81.9842 38.8769 78.7955 39.1674L78.9707 40.1032C82.1116 39.2694 85.3191 38.7103 88.557 38.4325L88.3818 37.4967C84.8411 38.1439 81.283 38.6625 77.7078 39.0524C77.0913 39.1215 77.1339 40.077 77.742 40.0454L77.7223 40.0016Z" fill="#002C42"/>
<path d="M78.2548 41.2334C81.56 41.0928 84.8267 40.4685 87.9508 39.3802C88.0506 39.3477 88.1369 39.2834 88.1967 39.1971C88.2565 39.1109 88.2865 39.0075 88.282 38.9026C88.2775 38.7978 88.2388 38.6973 88.1719 38.6165C88.105 38.5357 88.0134 38.479 87.9113 38.455C84.6016 37.9055 81.2036 38.5096 78.2863 40.1664C77.7801 40.4474 78.1892 41.13 78.6952 41.0264L88.0794 39.1134C88.6898 38.9837 88.3915 38.0697 87.7812 38.1993L78.4438 40.1228L78.8527 40.9827C81.5521 39.4601 84.6899 38.9033 87.7484 39.404L87.6828 38.4631C84.6393 39.5369 81.4532 40.1531 78.2288 40.2915C78.0971 40.296 77.9726 40.3527 77.8827 40.449C77.7928 40.5454 77.7449 40.6735 77.7494 40.8051C77.754 40.9368 77.8106 41.0613 77.9069 41.1512C78.0033 41.2411 78.1314 41.289 78.263 41.2845L78.2548 41.2334Z" fill="#002C42"/>
<path d="M71.0224 109.634C83.2581 107.535 95.5341 105.697 107.85 104.119C109.18 103.949 110.765 103.87 111.61 104.918C111.982 105.466 112.209 106.098 112.271 106.757L113.816 115.219C113.911 115.563 113.902 115.927 113.789 116.265C113.594 116.575 113.299 116.81 112.953 116.93C111.185 117.738 109.189 117.842 107.224 117.959C96.5943 118.64 86.0341 120.154 75.6411 122.488C74.6492 122.713 73.4871 122.9 72.7292 122.202C72.3717 121.805 72.122 121.323 72.0041 120.803C71.1475 118.013 70.4316 115.189 69.8565 112.329C69.6715 111.693 69.6585 111.019 69.8188 110.376C69.9112 110.059 70.117 109.788 70.3969 109.613C70.6768 109.439 71.0112 109.373 71.3362 109.43" fill="#0082C3"/>
<path d="M71.0373 109.967C78.1841 108.742 85.3456 107.605 92.5218 106.556C96.1082 106.028 99.6985 105.525 103.293 105.045C105.043 104.811 106.809 104.505 108.571 104.369C109.291 104.27 110.024 104.356 110.701 104.619C111.022 104.799 111.296 105.055 111.499 105.363C111.701 105.671 111.827 106.024 111.865 106.391C112.246 108.132 112.516 109.904 112.84 111.653L113.332 114.341C113.441 114.784 113.515 115.235 113.553 115.689C113.574 116.209 113.264 116.429 112.835 116.628C111.359 117.221 109.788 117.541 108.198 117.571C106.487 117.691 104.778 117.804 103.07 117.944C96.1221 118.543 89.21 119.499 82.3605 120.807C80.647 121.135 78.9335 121.482 77.22 121.851C76.3871 122.066 75.5435 122.238 74.6926 122.365C73.8326 122.462 73.031 122.296 72.6356 121.452C72.3223 120.677 72.071 119.878 71.884 119.064C71.6399 118.219 71.4153 117.378 71.1988 116.533C70.9823 115.687 70.7921 114.785 70.6149 113.948C70.377 113.092 70.2092 112.218 70.1131 111.335C70.0761 110.639 70.4245 109.542 71.3366 109.766C71.4234 109.785 71.5143 109.77 71.5894 109.722C71.6645 109.674 71.7176 109.599 71.737 109.512C71.7564 109.425 71.7405 109.334 71.6929 109.259C71.6452 109.184 71.5697 109.131 71.4829 109.111C71.1666 109.045 70.8376 109.076 70.5395 109.201C70.2414 109.326 69.9885 109.538 69.8145 109.811C69.6169 110.162 69.4914 110.549 69.4456 110.95C69.3998 111.35 69.4344 111.756 69.5476 112.143C69.8844 113.957 70.3282 115.754 70.7996 117.55C71.0473 118.471 71.303 119.388 71.5602 120.297C71.701 121.066 72.025 121.789 72.5049 122.405C73.6988 123.614 75.7958 122.811 77.1974 122.506C84.572 120.902 92.0311 119.715 99.5391 118.949C101.404 118.754 103.283 118.59 105.149 118.45C106.903 118.32 108.676 118.29 110.417 118.006C111.214 117.884 111.996 117.676 112.748 117.386C113.391 117.124 114.069 116.794 114.197 116.039C114.231 115.618 114.188 115.194 114.071 114.788L113.808 113.32L113.267 110.388L112.753 107.524C112.664 106.712 112.465 105.916 112.161 105.158C111.445 103.719 109.767 103.571 108.361 103.711C106.5 103.886 104.64 104.185 102.784 104.43C100.929 104.675 98.9239 104.942 96.9971 105.198C89.2606 106.315 81.5366 107.519 73.8251 108.81L70.9683 109.292C70.5469 109.363 70.5752 110.036 70.9922 109.985L71.0373 109.967Z" fill="#002C42"/>
<path d="M88.2278 112.023C88.3009 111.938 88.3517 111.836 88.3755 111.727C88.3993 111.617 88.3953 111.504 88.364 111.396C88.3326 111.289 88.2749 111.191 88.1961 111.112C88.1173 111.032 88.0198 110.974 87.9127 110.942C87.6937 110.885 87.4635 110.887 87.2457 110.948C87.0279 111.009 86.8303 111.127 86.6732 111.29C86.3012 111.536 85.9925 111.867 85.772 112.254C85.5516 112.642 85.4257 113.077 85.4046 113.522C85.4046 113.94 85.5561 114.343 85.8309 114.657C86.1058 114.971 86.4853 115.175 86.8991 115.231C87.3367 115.252 87.7712 115.148 88.1519 114.931C88.5326 114.715 88.8438 114.394 89.049 114.007C89.2625 113.592 89.3083 113.111 89.1768 112.663C89.0452 112.215 88.7466 111.835 88.3425 111.601C88.2608 111.559 88.1657 111.552 88.0782 111.58C87.9907 111.608 87.918 111.67 87.876 111.751C87.834 111.833 87.8263 111.928 87.8544 112.016C87.8825 112.103 87.9443 112.176 88.026 112.218C88.2358 112.341 88.3999 112.529 88.4936 112.753C88.5873 112.977 88.6055 113.226 88.5455 113.461C88.4697 113.714 88.3307 113.943 88.1417 114.127C87.9527 114.311 87.7198 114.443 87.4652 114.512C87.3263 114.565 87.1779 114.59 87.0291 114.584C86.8804 114.578 86.7344 114.541 86.6003 114.477C86.4012 114.361 86.2496 114.179 86.1724 113.962C86.0831 113.71 86.0607 113.439 86.1074 113.176C86.1542 112.913 86.2684 112.667 86.439 112.461C86.648 112.191 86.8979 111.954 87.1798 111.761C87.2868 111.682 87.4608 111.549 87.6092 111.561C87.6485 111.57 87.6485 111.57 87.6943 111.58C87.7533 111.593 87.6841 111.626 87.7031 111.541C87.6445 111.608 87.6136 111.694 87.6167 111.783C87.6199 111.872 87.6568 111.956 87.72 112.019C87.7852 112.079 87.8712 112.11 87.9595 112.107C88.0478 112.103 88.1311 112.065 88.1915 112.001L88.2278 112.023Z" fill="white"/>
<path d="M91.3608 110.029L92.3056 113.89C92.404 114.31 93.0416 114.102 92.9417 113.688L91.9984 109.821C91.8934 109.399 91.2558 109.607 91.3608 110.029Z" fill="white"/>
<path d="M95.1483 108.889L92.7857 111.557C92.746 111.6 92.7183 111.653 92.7054 111.71C92.6925 111.767 92.6948 111.827 92.7122 111.883C92.7296 111.939 92.7614 111.99 92.8044 112.03C92.8475 112.07 92.9002 112.098 92.9574 112.111L96.0668 112.806C96.1536 112.825 96.2446 112.809 96.3196 112.761C96.3947 112.714 96.4478 112.638 96.4672 112.551C96.4866 112.465 96.4708 112.374 96.4231 112.299C96.3754 112.224 96.2999 112.17 96.2131 112.151L93.1037 111.456L93.2755 112.01L95.6432 109.35C95.9281 109.029 95.4397 108.569 95.1483 108.889Z" fill="white"/>
<path d="M165.15 129.194L170.129 130.11C170.343 130.125 170.545 130.212 170.704 130.356C170.932 130.614 170.812 131.021 170.691 131.339C170.054 132.943 169.316 134.506 168.483 136.018C168.284 136.378 167.924 136.8 167.547 136.637C167.368 136.531 167.234 136.365 167.169 136.168L165.013 131.617C164.604 130.757 164.325 129.492 165.157 129.077" fill="#7EBEE0"/>
<path d="M30.5179 116.832C26.8657 119.383 23.5473 122.382 20.6401 125.758C20.4701 125.928 20.3454 126.137 20.2774 126.367C20.2547 126.599 20.3045 126.832 20.4199 127.034C20.5353 127.237 20.7106 127.398 20.9216 127.496C22.6685 128.498 24.7868 126.823 26.0269 125.199C27.7948 122.885 29.3104 120.39 30.548 117.755" fill="#7EBEE0"/>
<path d="M152.871 90.6728C153.001 91.5714 152.891 92.4886 152.552 93.331C153.222 92.4953 152.166 90.6531 153.232 90.2904C153.436 90.241 153.649 90.238 153.855 90.2818L167.571 92.1748C167.717 92.1776 167.861 92.2136 167.991 92.2803C168.122 92.347 168.235 92.4425 168.323 92.5596C168.361 92.6822 168.371 92.8119 168.353 92.939C168.335 93.0662 168.289 93.1877 168.218 93.2948C167.559 94.7438 166.749 96.3365 165.241 96.827C164.226 97.0565 163.168 97.0073 162.178 96.6846L153.339 94.6597" fill="#7EBEE0"/>
<path d="M19.1007 56.9919L15.7741 54.7704C15.055 54.2845 14.1534 53.7776 13.3624 54.1427C13.0603 54.3443 12.8027 54.6057 12.6057 54.9108C12.4087 55.216 12.2764 55.5583 12.2171 55.9166L10.0607 63.14C12.0584 61.8161 14.3085 60.92 16.6693 60.5081C17.4038 60.4725 18.1083 60.2057 18.6823 59.746C18.9811 59.3158 19.146 58.8067 19.1561 58.283C19.1662 57.7592 19.0211 57.2441 18.739 56.8027" fill="#7EBEE0"/>
<path d="M25.0661 24.8333L20.1728 20.9807C19.3876 20.501 18.7749 19.7845 18.423 18.9343C18.0253 17.4955 19.1555 16.142 20.1956 15.1034C20.3156 14.9548 20.4891 14.8592 20.6788 14.8369C20.7755 14.8615 20.8663 14.9051 20.9459 14.9652C21.0256 15.0253 21.0924 15.1007 21.1425 15.1869L24.8225 20.1478C25.4356 20.8474 25.8705 21.685 26.09 22.589C26.1858 23.0404 26.1162 23.5112 25.8938 23.9155C25.6714 24.3198 25.311 24.6307 24.8784 24.7914" fill="#7EBEE0"/>
<path d="M135.594 42.3236L146.516 37.5421C148.134 36.8296 149.903 36.1016 151.616 36.5042C154.431 37.1335 155.637 40.2901 156.45 43.0039C156.523 43.1666 156.563 43.3428 156.565 43.5213C156.568 43.6999 156.533 43.8771 156.464 44.0418C156.339 44.1885 156.184 44.3068 156.009 44.3884C155.835 44.4701 155.645 44.5133 155.452 44.5151L143.715 46.1978C141.977 46.596 140.168 46.5637 138.445 46.1038C136.775 45.5041 135.392 43.7565 135.844 42.0444" fill="#7EBEE0"/>
<path d="M100.224 13.6966L102.604 5.16345C102.824 3.8559 103.459 2.65384 104.415 1.73516C106.104 0.437614 108.477 1.1946 110.49 2.01894C110.62 2.05214 110.741 2.11213 110.847 2.19506C110.952 2.278 111.039 2.38204 111.102 2.50051C111.133 2.63999 111.134 2.78481 111.103 2.92443C111.071 3.06406 111.009 3.19496 110.921 3.30759L106.347 10.8577C105.75 12.0445 104.876 13.0695 103.797 13.8449C103.245 14.2136 102.579 14.3737 101.919 14.2967C101.26 14.2196 100.649 13.9104 100.196 13.4244" fill="#7EBEE0"/>
<path d="M68.1847 83.8186C66.4291 83.8259 65.0654 84.2522 65.6833 86.2312C65.8474 86.7567 66.207 87.9542 66.8261 87.9517C67.6404 87.9483 68.117 87.6934 68.789 87.3539" stroke="#002C42" stroke-width="0.8" stroke-linecap="round"/>
<path d="M70.4579 86.9539C70.4504 86.6379 70.3776 86.3298 70.3448 86.0153C70.314 85.7189 70.3027 85.4014 70.2264 85.1122C70.1305 84.7483 70.11 84.299 69.9651 83.9586C69.8164 83.6097 70.5901 84.1883 70.6431 84.2261C70.7996 84.3375 71.5039 84.8647 71.6002 84.6288C71.8287 84.0691 71.9961 83.4764 72.2811 82.9417C72.294 82.9176 72.3503 82.6998 72.4061 82.7966C72.5055 82.9689 72.5702 83.1666 72.654 83.3469C73.1424 84.3966 73.709 85.3826 74.533 86.1999" stroke="#002C42" stroke-width="0.8" stroke-linecap="round"/>
<path d="M75.466 86.0486C75.4345 85.7826 75.2511 82.0375 75.7174 82.1686C75.8289 82.1999 76.0379 82.7086 76.094 82.8058C76.4187 83.3686 76.8842 83.8341 77.3422 84.2883C77.6243 84.568 77.8824 84.8848 78.2137 85.1036" stroke="#002C42" stroke-width="0.8" stroke-linecap="round"/>
<path d="M78.5933 81.8591C78.5951 82.3106 78.7364 82.619 78.942 83.0151C79.1173 83.3528 79.2556 83.7131 79.4404 84.0449C79.6264 84.3788 79.7686 84.7294 79.9823 85.0472" stroke="#002C42" stroke-width="0.8" stroke-linecap="round"/>
<path d="M80.6555 81.5066C80.677 82.4409 81.1626 83.1964 81.5231 84.028C81.6423 84.3028 81.8312 84.5522 81.9359 84.8316C82.0913 85.2458 82.5939 84.6993 82.8493 84.5739C83.1862 84.4086 83.537 84.3445 83.9102 84.343" stroke="#002C42" stroke-width="0.8" stroke-linecap="round"/>
<path d="M66.2299 86.3818C66.6061 86.1288 67.017 85.9842 67.4067 85.7873" stroke="#002C42" stroke-width="0.8" stroke-linecap="round"/>
<path d="M75.8532 84.6221C76.0971 84.432 76.5536 83.9804 76.8824 83.9791" stroke="#002C42" stroke-width="0.8" stroke-linecap="round"/>
<path d="M78.3415 80.3861C78.6098 80.4319 78.7543 80.237 78.4883 80.2381" stroke="#002C42" stroke-width="0.8" stroke-linecap="round"/>
<path d="M81.9365 134.889C81.0675 134.027 78.9446 134.357 78.317 135.387C77.8826 136.099 77.6458 136.943 77.3266 137.71C77.1255 138.194 77.1003 138.739 77.208 139.249C77.2953 139.662 77.5996 140.173 77.8971 140.468C78.3674 140.935 79.0511 140.901 79.6698 140.899C80.739 140.894 82.4827 140.437 82.8157 139.247C83.127 138.134 83.0153 137.221 82.5981 136.168C82.4589 135.816 82.2939 135.356 81.9653 135.139C81.6049 134.901 81.1924 134.88 80.8107 134.706C80.2963 134.472 79.5834 134.548 79.0571 134.682C78.6737 134.78 78.0982 134.943 77.8443 135.285C77.6409 135.558 77.2728 135.865 77.2545 136.221C77.2435 136.434 77.1312 136.633 77.1321 136.86C77.1334 137.168 77.1262 137.477 77.136 137.784C77.1499 138.221 77.3236 138.966 77.6422 139.282C78.0904 139.726 78.5382 139.953 79.1457 140.119C79.435 140.199 79.7236 140.237 80.0245 140.206C80.5512 140.151 81.0494 139.575 81.4408 139.266C81.9069 138.898 82.3763 138.656 82.6025 138.067C82.9863 137.068 82.1194 136.564 81.5034 135.953C81.0822 135.536 80.6982 135.269 80.077 135.272C79.367 135.275 78.8365 135.936 78.4117 136.463C77.9645 137.018 78.0454 138.028 78.3618 138.654C78.563 139.052 78.8316 139.482 79.2997 139.584C80.033 139.744 80.876 139.653 81.5171 139.252C82.7149 138.503 83.1099 136.938 81.754 136.091C81.2806 135.796 80.6615 135.894 80.1282 135.897C79.6948 135.898 79.4235 135.914 79.1889 136.314C78.8681 136.86 78.51 137.539 78.5127 138.185C78.516 138.997 79.1938 139.622 79.9912 139.696C80.9575 139.785 81.5093 139.006 81.6999 138.126C81.8185 137.579 81.8181 136.643 81.072 136.584C80.414 136.532 80.0246 137.079 79.7255 137.6C79.4359 138.104 79.0753 138.659 79.1456 139.269C79.1696 139.476 79.4973 139.514 79.6572 139.537C80.0451 139.596 80.3549 139.557 80.6386 139.256C81.1177 138.747 81.8511 137.055 80.8191 136.72C80.4088 136.587 79.3706 136.483 79.1465 136.977C78.9209 137.474 78.8275 138.457 79.4107 138.719C80.3163 139.126 80.8275 138.142 80.9469 137.407C80.9802 137.202 81.1112 136.704 80.874 136.56C80.5895 136.388 80.3711 136.68 80.2608 136.903C80.0507 137.328 79.999 137.827 79.9645 138.293C79.9522 138.46 79.8704 138.903 79.992 139.05C80.3689 139.507 81.2959 137.814 81.4094 137.558C81.5776 137.178 81.2614 137.625 81.1983 137.732C81.032 138.016 80.9506 138.287 80.9519 138.612C80.9538 139.058 81.3156 139.317 81.6895 138.967C81.7601 138.9 81.934 138.599 82.0635 138.715C82.2651 138.895 82.1274 139.51 81.9877 139.698C81.7162 140.063 81.3886 140.082 81.0213 140.268" stroke="white" stroke-linecap="round"/>
<path d="M80.7079 140.957C80.4011 139.586 79.385 138.446 79.3789 136.976C79.3766 136.424 79.1748 135.183 80.0449 135.147C80.3435 135.135 80.5272 135.188 80.7818 135.332C81.0045 135.458 81.0534 135.795 81.2494 135.892" stroke="#1877F2" stroke-linecap="round"/>
<path d="M78.5731 138.591C79.3414 138.413 80.0661 138.181 80.7574 137.832" stroke="#1877F2" stroke-linecap="round"/>
<path d="M98.9801 131.871C98.4083 131.675 97.9183 131.502 97.3004 131.605C96.6246 131.718 96.0493 132.168 95.5826 132.613" stroke="#D91616" stroke-linecap="round"/>
<path d="M95.3957 132.792C95.1964 133.016 94.9187 133.382 94.8693 133.678C94.8304 133.911 94.8877 134.267 94.7975 134.483C94.6082 134.935 95.1182 136.411 94.9742 135.942" stroke="#FFD600" stroke-linecap="round"/>
<path d="M94.936 136.015C95.2207 136.512 95.6339 136.636 96.0951 136.88C96.5314 137.111 96.9106 137.264 97.4034 137.358C98.4823 137.564 99.4807 136.7 99.7306 135.689" stroke="#5DAC73" stroke-linecap="round"/>
<path d="M99.6923 135.761C99.5835 135.407 99.6672 135.09 99.5609 134.744C99.4962 134.534 99.5705 133.986 99.2384 134.088C98.6679 134.263 98.0974 134.439 97.5269 134.614" stroke="#2396E9" stroke-linecap="round"/>
<path d="M89.2782 129.411C89.3758 133.411 90.3995 138.781 92.3463 142.165C92.51 142.45 92.6296 142.339 92.916 142.225C96.8328 140.66 101.226 141.24 105.119 139.534C105.421 139.402 102.217 126.712 101.614 126.334C101.502 126.264 101.282 126.356 101.168 126.387C99.4147 126.866 97.7482 127.313 95.9305 127.584C93.6862 127.919 91.6591 128.385 89.5178 129.024C89.3706 129.068 89.2228 129.098 89.0963 129.164" stroke="#8996A2" stroke-width="0.8" stroke-linecap="round"/>
<path d="M63.0831 69.3322L102.756 64.2256L101.479 54.3074L61.8065 59.4141L63.0831 69.3322Z" fill="#0082C3"/>
<path d="M75.4416 65.3723C75.3393 65.3855 75.2337 65.3938 75.128 65.3971C74.5232 65.4127 73.93 65.2301 73.4386 64.8771C72.8518 64.4441 72.4749 63.7837 72.4005 63.0582C72.3484 62.4834 72.4745 61.9065 72.7617 61.406C72.9453 61.0857 73.1979 60.8104 73.5011 60.6C73.8791 60.3458 74.3105 60.182 74.7619 60.1215C74.7818 60.1189 74.8032 60.1162 74.8234 60.1136C75.6222 60.0166 76.4234 60.2746 77.0155 60.8195L77.0293 60.8332L76.5002 61.9874L76.4489 61.9404L76.4134 61.9099L76.3444 61.8538L76.2885 61.8112C76.0293 61.6191 75.5093 61.3076 74.9392 61.381L74.9128 61.3844C74.1761 61.4921 73.6612 62.1698 73.7549 62.9085C73.834 63.5234 74.2967 64.198 75.3406 64.08L75.3559 64.078C75.9617 64.0001 76.3004 63.5042 76.4481 63.2155L76.4801 63.1509C76.4977 63.1138 76.538 63.0225 76.6038 62.8728L77.9247 59.817L79.2891 59.6414L79.9374 64.6778L78.6817 64.8395L78.5845 64.0839L77.5836 64.2083L77.4501 64.2255L77.4138 64.2318L77.4076 64.2338L77.3844 64.267L77.3565 64.3043L77.3168 64.3542L77.2832 64.3942L77.2443 64.4395L77.2001 64.4875C76.7329 64.9756 76.112 65.288 75.4416 65.3723ZM78.3278 61.8863L77.8016 63.1135L78.4746 63.0269L78.3278 61.8863ZM92.8882 63.1242C92.1762 63.2325 91.4514 63.0382 90.8892 62.5882L90.9757 63.2604L88.157 63.6233L87.5084 58.5842L88.8053 58.4173L89.3105 62.3427L90.4825 62.1919C90.1566 61.7887 89.9533 61.3006 89.8965 60.7854C89.8515 60.444 89.8763 60.0972 89.9693 59.7657C90.0641 59.4328 90.2247 59.1223 90.4416 58.8525C90.8778 58.299 91.5188 57.9448 92.2195 57.8699C92.9062 57.7816 93.6002 57.965 94.1534 58.3812C94.5017 58.6376 94.7809 58.9763 94.9659 59.3672L94.7451 57.6517L95.9238 57.5L98.2435 60.0467L97.8832 57.2478L99.1899 57.0796L99.8386 62.1196L98.6907 62.2674L96.3391 59.7157L96.7005 62.5235L95.3947 62.6916L95.1723 60.9641C95.1028 61.3733 94.9347 61.7594 94.6825 62.089C94.2501 62.6638 93.6022 63.0376 92.8882 63.1242ZM92.3881 59.1229C92.0256 59.1665 91.6949 59.3511 91.4675 59.6368C91.2446 59.9177 91.1453 60.2771 91.1924 60.6327C91.2392 61.0088 91.4332 61.351 91.7319 61.5844C92.0125 61.8073 92.3702 61.9095 92.7262 61.8686C93.0827 61.8253 93.4062 61.6386 93.6221 61.3516C93.8455 61.0444 93.9396 60.6619 93.8842 60.2862C93.7913 59.5524 93.1221 59.0321 92.3881 59.1231L92.3881 59.1229ZM85.1121 64.0154L83.8089 64.1831L83.1601 59.1425L84.4633 58.9748L84.7097 60.8886L86.0518 60.7158L85.8054 58.802L87.1097 58.6341L87.7584 63.6743L86.4542 63.8422L86.206 61.9139L84.8639 62.0867L85.1121 64.0152L85.1121 64.0154ZM82.5271 64.3481L81.2242 64.5158L80.7303 60.6785L79.7162 60.809L79.5611 59.6042L82.8909 59.1756L83.046 60.3804L82.0343 60.5106L82.5282 64.3476L82.5271 64.3481ZM67.1573 66.3265L65.1568 66.584L64.508 61.544L66.3306 61.3094C67.1665 61.2018 67.7736 61.2245 68.4016 61.6548C68.859 61.9746 69.1872 62.4473 69.327 62.9876L69.0656 60.9573L71.9665 60.5839L72.1092 61.6926L70.5134 61.8998L70.6194 62.7232L72.0012 62.5442L72.1407 63.628L70.7589 63.8073L70.8765 64.7208L72.4725 64.5153L72.6148 65.6204L69.7137 65.9938L69.4551 63.9846C69.4434 64.5279 69.247 65.051 68.8983 65.4678C68.3971 66.0657 67.8995 66.2308 67.1578 66.3262L67.1573 66.3265ZM65.9521 62.4597L66.3189 65.309L66.8428 65.2416C67.3492 65.1764 67.6976 65.0174 67.9079 64.7556C68.1182 64.4938 68.1926 64.1201 68.1286 63.6222C68.0108 62.7071 67.4218 62.2705 66.4701 62.3931L65.9521 62.4597Z" fill="#FEFEFE"/>
<path d="M165.68 149.042C175.344 149.002 183.147 141.135 183.107 131.47C183.067 121.805 175.199 114.002 165.534 114.042C155.869 114.083 148.067 121.95 148.107 131.615C148.147 141.28 156.015 149.082 165.68 149.042Z" fill="#BEDEEF"/>
<path d="M167.39 136.035L165.736 136.042L165.703 128.051L163.266 128.895L163.26 127.493L167.137 126.049L167.349 126.048L167.39 136.035Z" fill="#001018"/>
<path d="M78.2116 151.938C85.3584 150.713 92.5199 149.575 99.6961 148.526C103.283 147.999 106.873 147.496 110.467 147.016C112.217 146.782 113.983 146.475 115.745 146.34C116.465 146.241 117.198 146.327 117.875 146.589C118.197 146.77 118.47 147.025 118.673 147.334C118.875 147.642 119.001 147.994 119.039 148.361C119.42 150.103 119.69 151.875 120.014 153.624L120.506 156.311C120.616 156.754 120.69 157.205 120.727 157.66C120.749 158.18 120.438 158.399 120.009 158.599C118.533 159.192 116.962 159.511 115.372 159.542C113.661 159.661 111.952 159.774 110.244 159.915C103.296 160.514 96.3843 161.47 89.5349 162.778C87.8214 163.105 86.1078 163.453 84.3943 163.822C83.5614 164.037 82.7178 164.209 81.867 164.336C81.0069 164.432 80.2054 164.267 79.8099 163.422C79.4967 162.648 79.2454 161.849 79.0583 161.034C78.8142 160.189 78.5897 159.349 78.3732 158.503C78.1566 157.658 77.9664 156.756 77.7892 155.919C77.5513 155.063 77.3835 154.189 77.2874 153.305C77.2504 152.61 77.5988 151.512 78.5109 151.737C78.5977 151.756 78.6886 151.74 78.7637 151.692C78.8388 151.645 78.8919 151.569 78.9113 151.482C78.9307 151.396 78.9148 151.305 78.8672 151.23C78.8195 151.155 78.744 151.101 78.6572 151.082C78.341 151.015 78.0119 151.046 77.7138 151.171C77.4158 151.296 77.1628 151.509 76.9888 151.781C76.7912 152.133 76.6658 152.52 76.6199 152.92C76.5741 153.321 76.6088 153.727 76.7219 154.113C77.0587 155.928 77.5025 157.724 77.974 159.521C78.2217 160.442 78.4774 161.358 78.7345 162.268C78.8753 163.036 79.1993 163.76 79.6792 164.376C80.8731 165.584 82.9701 164.782 84.3717 164.476C91.7464 162.873 99.2054 161.685 106.713 160.92C108.578 160.725 110.457 160.56 112.323 160.421C114.078 160.29 115.851 160.261 117.591 159.976C118.388 159.854 119.17 159.646 119.922 159.356C120.565 159.094 121.243 158.765 121.371 158.01C121.405 157.588 121.363 157.164 121.245 156.758L120.982 155.291L120.441 152.359L119.927 149.494C119.838 148.683 119.639 147.887 119.335 147.129C118.619 145.69 116.941 145.542 115.535 145.681C113.675 145.856 111.814 146.155 109.958 146.401C108.103 146.646 106.098 146.912 104.171 147.169C96.4349 148.285 88.7109 149.489 80.9995 150.781L78.1426 151.263C77.7213 151.333 77.7495 152.006 78.1665 151.955L78.2116 151.938Z" fill="#8996A2"/>
<path d="M90.1372 153.948C88.4235 154.285 87.8071 156.563 88.4747 158.016C88.8411 158.813 89.6702 159.757 90.606 159.108C90.9536 158.867 91.2545 158.505 91.4899 158.155C91.5638 158.045 91.5766 157.949 91.7022 157.906" stroke="#00689D" stroke-width="0.8" stroke-linecap="round"/>
<path d="M92.7558 158.026C92.753 157.334 92.7501 156.642 92.7472 155.951C92.7442 155.222 92.6831 154.494 93.0171 153.819C93.1885 153.473 93.5462 153.432 93.8862 153.437C94.4108 153.445 94.4734 153.911 94.5231 154.336C94.593 154.934 94.3661 155.439 93.9824 155.884C93.7529 156.15 93.2938 156.197 93.747 156.38C94.4411 156.661 95.0259 157.283 95.6041 157.752C95.8485 157.951 96.0646 158.134 96.288 158.355C96.3286 158.395 96.5376 158.506 96.4745 158.506" stroke="#00689D" stroke-width="0.8" stroke-linecap="round"/>
<path d="M99.1763 152.796C98.7842 152.797 96.8853 153.028 96.8875 153.562C96.8916 154.529 97.1729 155.497 97.285 156.458C97.3363 156.898 97.4173 157.984 98.0824 157.866C98.5026 157.791 98.7965 157.47 99.1953 157.366C99.3823 157.317 99.5709 157.253 99.7521 157.191" stroke="#00689D" stroke-width="0.8" stroke-linecap="round"/>
<path d="M97.4534 155.59C97.9698 155.422 98.5762 155.214 99.1244 155.212" stroke="#00689D" stroke-width="0.8" stroke-linecap="round"/>
<path d="M100.87 157.249C100.843 156.013 100.939 154.779 100.975 153.542C100.982 153.295 100.96 152.035 101.432 152.338C102.006 152.707 102.485 153.209 102.778 153.845C103.165 154.682 103.28 155.786 103.838 156.531" stroke="#00689D" stroke-width="0.8" stroke-linecap="round"/>
<path d="M101.355 155.264C101.851 155.093 102.296 154.765 102.839 154.763" stroke="#00689D" stroke-width="0.8" stroke-linecap="round"/>
<path d="M103.448 152.159C104.114 152.059 104.738 151.81 105.397 151.682C105.69 151.626 105.942 151.463 106.232 151.404" stroke="#00689D" stroke-width="0.8" stroke-linecap="round"/>
<path d="M104.871 151.781C104.876 152.987 105.16 154.101 105.443 155.272C105.54 155.674 105.636 156.06 105.819 156.423" stroke="#00689D" stroke-width="0.8" stroke-linecap="round"/>
<path d="M109.099 150.48C108.536 150.599 108.022 150.813 107.479 150.985C107.272 151.051 107.407 151.27 107.422 151.457C107.531 152.793 107.771 154.064 108.038 155.372C108.149 155.913 108.244 156.007 108.823 155.906C109.352 155.815 109.991 155.81 110.474 155.638" stroke="#00689D" stroke-width="0.8" stroke-linecap="round"/>
<path d="M107.998 153.405C108.361 153.305 108.739 153.235 109.094 153.114C109.224 153.07 109.341 153.005 109.479 153.022" stroke="#00689D" stroke-width="0.8" stroke-linecap="round"/>
<path d="M113.439 125.275C113.439 125.275 116.354 125.026 117.199 126.074C117.57 126.621 117.798 127.254 117.86 127.912L119.405 136.375C119.5 136.718 119.491 137.082 119.378 137.42C119.183 137.731 118.888 137.965 118.542 138.086C116.774 138.893 114.778 138.997 112.813 139.115C102.183 139.795 121.779 136.786 111.386 139.121C110.394 139.346 109.232 139.533 108.474 138.834C108.116 138.437 107.867 137.956 107.749 137.435C106.892 134.645 106.176 131.821 105.601 128.962C105.416 128.325 105.403 127.651 105.564 127.008C105.656 126.691 105.862 126.42 106.142 126.245C106.421 126.071 106.756 126.006 107.081 126.062" fill="#002C42"/>
<path d="M112.37 129.883C112.467 129.543 112.432 129.586 112.467 129.543C112.682 129.281 112.991 129.252 112.991 129.252" stroke="white" stroke-linecap="round"/>
<path d="M110.919 130.62C111.126 130.889 111.37 131.191 111.671 131.361C111.911 131.497 112.277 131.542 112.552 131.551C112.786 131.559 113.065 131.38 113.282 131.296C113.429 131.24 113.563 131.113 113.639 130.978C113.769 130.747 114.134 130.521 114.408 130.626C114.575 130.689 114.731 130.901 114.705 131.078C114.667 131.338 114.572 131.471 114.372 131.629C114.171 131.788 113.976 131.96 113.937 132.229C113.898 132.495 113.954 132.702 114.087 132.93C114.237 133.185 114.483 133.359 114.71 133.528C114.816 133.607 114.97 133.643 115.101 133.662C115.222 133.68 115.229 133.759 115.212 133.875C115.173 134.142 114.876 134.398 114.657 134.529C114.064 134.885 113.176 134.802 112.554 134.561C112.321 134.47 112.061 134.461 111.826 134.359C111.488 134.213 111.264 133.841 111.003 133.599C110.687 133.304 110.397 132.859 110.206 132.474C110.059 132.176 110.006 131.897 110.055 131.565C110.098 131.266 110.165 130.991 110.406 130.783C110.506 130.697 110.654 130.581 110.796 130.602C111.05 130.639 111.173 131.178 111.204 131.358C111.258 131.668 111.237 132.074 111.103 132.362C111.034 132.511 110.876 132.8 110.685 132.821C110.509 132.84 110.713 132.261 110.747 132.205C110.937 131.9 111.26 131.798 111.593 131.894C111.734 131.934 111.901 132.115 111.877 132.276C111.853 132.442 111.401 132.324 111.324 132.282C111.073 132.146 110.842 131.857 110.848 131.56C110.852 131.407 110.882 131.296 111.048 131.286C111.335 131.269 111.46 131.571 111.567 131.792C111.767 132.203 111.789 132.685 111.721 133.13C111.694 133.305 111.629 133.553 111.406 133.558C111.128 133.563 111.4 132.965 111.479 132.888C111.743 132.63 112.038 132.513 112.402 132.573C112.607 132.607 112.974 132.761 113.049 132.987C113.123 133.21 112.756 133.743 112.556 133.466C112.374 133.214 112.469 132.705 112.575 132.448C112.668 132.221 112.876 131.987 113.125 131.938C113.403 131.884 113.346 132.385 113.322 132.548C113.3 132.697 113.043 132.796 112.915 132.834C112.654 132.911 112.349 132.818 112.088 132.78C111.861 132.747 111.628 132.763 111.404 132.705C111.099 132.625 110.863 132.376 110.647 132.161C110.548 132.062 110.415 131.996 110.325 131.891C110.305 131.868 110.172 131.658 110.156 131.74C110.12 131.916 110.222 132.086 110.207 132.253C110.197 132.36 110.225 132.523 110.263 132.624C110.359 132.877 110.401 133.179 110.475 133.444C110.549 133.71 110.825 133.921 110.974 134.133C111.141 134.371 111.358 134.501 111.61 134.637C111.889 134.787 112.274 135.009 112.61 134.877C112.83 134.791 113.091 134.802 113.309 134.694C113.461 134.618 113.552 134.505 113.683 134.403C113.895 134.235 114.077 133.715 113.827 133.524C113.613 133.36 113.272 133.333 113.029 133.423C112.75 133.527 112.448 133.548 112.191 133.693C111.96 133.824 112.305 134.001 112.427 134.028C112.783 134.107 113.169 134.075 113.533 134.128C113.734 134.157 113.934 134.187 114.135 134.216C114.177 134.222 114.238 134.187 114.27 134.157C114.295 134.132 114.388 134.063 114.364 134.06" stroke="white" stroke-linecap="round"/>
</g>
<defs>
<clipPath id="clip0">
<rect width="185" height="202" fill="white"/>
</clipPath>
</defs>
</svg>
