<svg width="177" height="202" viewBox="0 0 177 202" fill="none" xmlns="http://www.w3.org/2000/svg">
<g clip-path="url(#clip0)">
<path fill-rule="evenodd" clip-rule="evenodd" d="M148.254 41.7861C150.482 48.4019 151.101 55.4376 152.64 62.2471C154.644 71.1112 158.234 79.6168 163.187 87.2378C168.312 95.1233 175.057 102.467 176.748 111.717C179.183 125.026 170.081 138.082 158.777 145.491C141.131 157.055 118.74 158.506 97.6923 156.962C93.466 156.652 89.0646 156.261 85.1241 157.817C77.9593 160.647 74.7213 168.702 71.0108 175.455C68.3734 180.256 65.031 184.85 60.383 187.744C53.4228 192.079 44.2905 191.944 36.7262 188.765C29.1615 185.586 23.0089 179.701 18.0581 173.153C4.48107 155.199 -0.886535 131.463 2.80004 109.265C6.4861 87.0677 18.98 66.6165 36.5023 52.521C44.1788 46.3464 53.1174 41.226 62.9176 40.201C71.5608 39.2973 80.3996 41.6203 88.9332 39.9775C97.1041 38.4045 104.105 33.3841 111.474 29.5188C118.841 25.6535 127.691 22.8786 135.376 26.0833C141.816 28.7695 146.027 35.1698 148.254 41.7861Z" fill="#E7F3F9"/>
<path d="M73.3169 28.5463L71.806 28.2086C71.6817 28.1833 71.5525 28.2072 71.4455 28.2751C71.3385 28.343 71.2619 28.4498 71.2319 28.5729C71.2066 28.6972 71.2305 28.8263 71.2984 28.9334C71.3663 29.0404 71.4731 29.117 71.5962 29.147L73.1071 29.4847C73.2316 29.5125 73.362 29.4898 73.4697 29.4214C73.5773 29.3531 73.6534 29.2448 73.6812 29.1204C73.7091 28.9959 73.6863 28.8655 73.618 28.7578C73.5496 28.6502 73.4413 28.5741 73.3169 28.5463Z" fill="white"/>
<path d="M126.856 179.799L62.0644 188.198C59.109 188.532 56.1316 187.768 53.7855 186.072C51.4395 184.377 49.9164 181.888 49.5506 179.153L32.0218 47.1364C31.6596 44.4 32.4861 41.6418 34.3196 39.4682C36.1531 37.2946 38.8436 35.8836 41.7993 35.5453L98.2298 29.087C101.185 28.7523 104.163 29.5166 106.509 31.2122C108.855 32.9079 110.378 35.3963 110.744 38.1315L136.624 168.206C136.987 170.942 136.162 173.699 134.33 175.873C132.499 178.047 129.81 179.459 126.856 179.799Z" fill="#BEDEEF"/>
<path d="M127.222 182.403L67.9503 190.628L64.2499 191.14C63.6104 191.218 63.0554 191.313 62.3554 191.397L61.112 191.486C60.6947 191.5 60.2953 191.482 59.8844 191.47C56.5736 191.329 53.4125 190.155 50.9157 188.139C48.3843 186.13 46.6838 183.37 46.1036 180.33C45.9391 179.502 45.9003 179.011 45.8104 178.445L45.5869 176.72L45.1378 173.279C43.9507 164.087 42.8084 154.887 41.711 145.677L35.0168 90.5876L31.6775 63.0309L30.0219 49.2965L29.8078 47.5737C29.7276 46.893 29.7022 46.2078 29.7319 45.5236C29.8456 42.7464 30.9685 40.0855 32.919 37.9717C34.8694 35.858 37.533 34.4153 40.4785 33.8773L41.5729 33.7112L42.5034 33.6115L44.3624 33.4208L51.7921 32.6023L66.6889 31.055L96.4596 27.9738C97.0949 27.9135 97.6666 27.8309 98.3582 27.7822L99.3575 27.7241L100.413 27.7598C101.809 27.867 103.177 28.1835 104.463 28.6968C107.036 29.7351 109.156 31.5454 110.482 33.8359C111.132 34.969 111.545 36.2058 111.699 37.4812C111.85 38.6893 112.129 39.7778 112.344 40.9261L113.772 47.7349L119.587 74.9547L131.057 129.407L136.799 156.639L138.23 163.439L138.944 166.843L139.132 167.694C139.191 167.98 139.214 168.414 139.247 168.767C139.293 169.485 139.277 170.204 139.2 170.92C138.876 173.798 137.519 176.494 135.346 178.575C133.173 180.656 130.309 182.003 127.212 182.401L127.222 182.403ZM126.511 177.192C128.412 177.008 130.192 176.237 131.562 175.003C132.933 173.768 133.816 172.143 134.067 170.388C134.103 170.168 134.121 169.946 134.119 169.724C134.14 169.509 134.143 169.293 134.128 169.078C134.101 168.863 134.127 168.713 134.078 168.429L133.919 167.575L133.277 164.158L131.972 157.329L126.852 130.007L116.632 75.4022L111.588 48.0498L110.285 41.2122C110.082 40.0938 109.857 38.9069 109.583 37.8377C109.326 36.8182 108.897 35.8428 108.311 34.9475C107.207 33.1571 105.489 31.7589 103.429 30.9739C102.409 30.5943 101.328 30.371 100.229 30.3127L99.4148 30.2995L98.5907 30.3664C98.0389 30.4075 97.3743 30.5074 96.7651 30.5822L67.1446 34.3056L52.3004 36.1649L44.8737 37.0935L43.0157 37.3209L42.0903 37.4398L41.3381 37.5763C40.3409 37.7809 39.3865 38.1353 38.5129 38.6256C36.7792 39.6188 35.448 41.114 34.726 42.879C34.3861 43.7514 34.2073 44.6705 34.1969 45.5977C34.1873 46.0671 34.2155 46.5364 34.2812 47.0018L34.5256 48.7218L36.5065 62.496L40.4874 89.9664L48.4314 144.94C49.7701 154.102 51.0616 163.27 52.3058 172.443L52.7643 175.886L52.9993 177.604C53.0797 178.168 53.1579 178.822 53.2314 179.13C53.5366 180.684 54.3843 182.103 55.6446 183.168C56.9192 184.241 58.5488 184.883 60.2684 184.99C60.4749 185.033 60.696 185.014 60.9036 185.012L61.5326 184.977C62.0656 184.932 62.749 184.836 63.3467 184.768L67.0606 184.322L126.511 177.192Z" fill="#002C42"/>
<path d="M123.189 171.203L67.398 179.237C64.9983 179.708 60.535 177.877 60.1333 175.523L41.8731 54.6769C41.7765 54.1163 41.8003 53.5435 41.943 52.9912C42.0857 52.439 42.3446 51.9182 42.7049 51.4585C43.0651 50.9988 43.5197 50.6094 44.0425 50.3124C44.5654 50.0154 45.1463 49.8167 45.752 49.7277L95.5485 42.3587C96.158 42.262 96.7821 42.2785 97.3846 42.4071C97.9871 42.5356 98.5559 42.7738 99.0579 43.1078C99.5599 43.4417 99.9851 43.8648 100.309 44.3523C100.633 44.8398 100.848 45.3822 100.944 45.9477L127.138 166.268C127.233 166.833 127.206 167.409 127.058 167.964C126.911 168.519 126.645 169.041 126.278 169.5C125.911 169.959 125.448 170.346 124.918 170.638C124.388 170.931 123.8 171.123 123.189 171.203Z" fill="white"/>
<path d="M157.15 129.194L162.129 130.11C162.343 130.125 162.545 130.212 162.704 130.356C162.932 130.614 162.812 131.021 162.691 131.339C162.054 132.944 161.316 134.506 160.483 136.018C160.284 136.378 159.924 136.8 159.547 136.637C159.368 136.531 159.234 136.365 159.169 136.168L157.013 131.617C156.604 130.757 156.325 129.492 157.157 129.077" fill="#7EBEE0"/>
<path d="M22.5179 116.832C18.8657 119.383 15.5473 122.382 12.6401 125.758C12.4701 125.928 12.3454 126.137 12.2774 126.367C12.2547 126.599 12.3045 126.832 12.4199 127.034C12.5353 127.237 12.7106 127.398 12.9216 127.496C14.6685 128.498 16.7868 126.823 18.0269 125.199C19.7948 122.885 21.3104 120.39 22.548 117.755" fill="#7EBEE0"/>
<path d="M144.871 90.6727C145.001 91.5714 144.891 92.4885 144.552 93.331C145.222 92.4953 144.166 90.6531 145.232 90.2904C145.436 90.241 145.649 90.238 145.855 90.2818L159.571 92.1748C159.717 92.1775 159.861 92.2136 159.991 92.2803C160.122 92.347 160.235 92.4425 160.323 92.5596C160.361 92.6822 160.371 92.8119 160.353 92.939C160.335 93.0662 160.289 93.1877 160.218 93.2948C159.559 94.7438 158.749 96.3365 157.241 96.827C156.226 97.0565 155.168 97.0073 154.178 96.6845L145.339 94.6597" fill="#7EBEE0"/>
<path d="M11.1007 56.9919L7.7741 54.7704C7.05501 54.2846 6.15341 53.7776 5.36236 54.1427C5.06025 54.3443 4.80273 54.6057 4.60572 54.9108C4.40872 55.216 4.27644 55.5583 4.21706 55.9166L2.06071 63.14C4.0584 61.8161 6.30847 60.92 8.66935 60.5081C9.40384 60.4725 10.1083 60.2057 10.6823 59.746C10.9811 59.3158 11.146 58.8067 11.1561 58.283C11.1662 57.7592 11.0211 57.2441 10.739 56.8027" fill="#7EBEE0"/>
<path d="M17.0661 24.8333L12.1728 20.9807C11.3876 20.501 10.7749 19.7844 10.423 18.9343C10.0253 17.4955 11.1555 16.142 12.1956 15.1033C12.3156 14.9548 12.4891 14.8592 12.6788 14.8369C12.7755 14.8615 12.8663 14.9051 12.9459 14.9652C13.0256 15.0253 13.0924 15.1007 13.1425 15.1869L16.8225 20.1478C17.4356 20.8474 17.8705 21.685 18.09 22.5889C18.1858 23.0403 18.1162 23.5112 17.8938 23.9155C17.6714 24.3198 17.311 24.6307 16.8784 24.7914" fill="#7EBEE0"/>
<path d="M127.594 42.3236L138.516 37.5421C140.134 36.8296 141.903 36.1016 143.616 36.5042C146.431 37.1335 147.637 40.2901 148.45 43.0039C148.523 43.1666 148.563 43.3428 148.565 43.5213C148.568 43.6999 148.533 43.8771 148.464 44.0418C148.339 44.1885 148.184 44.3068 148.009 44.3884C147.835 44.4701 147.645 44.5133 147.452 44.5151L135.715 46.1978C133.977 46.596 132.168 46.5637 130.445 46.1038C128.775 45.5041 127.392 43.7565 127.844 42.0444" fill="#7EBEE0"/>
<path d="M92.2239 13.6966L94.604 5.16346C94.8237 3.8559 95.4586 2.65384 96.4147 1.73517C98.1038 0.437617 100.477 1.1946 102.49 2.01894C102.62 2.05214 102.741 2.11213 102.847 2.19507C102.952 2.278 103.039 2.38204 103.102 2.50052C103.133 2.63999 103.134 2.78482 103.103 2.92444C103.071 3.06406 103.009 3.19496 102.921 3.3076L98.3467 10.8577C97.7503 12.0445 96.8755 13.0695 95.7971 13.8449C95.2446 14.2136 94.579 14.3737 93.9193 14.2967C93.2595 14.2196 92.6487 13.9104 92.1961 13.4244" fill="#7EBEE0"/>
<path d="M157.68 149.042C167.344 149.002 175.147 141.135 175.107 131.47C175.067 121.805 167.199 114.002 157.534 114.042C147.869 114.083 140.067 121.95 140.107 131.615C140.147 141.28 148.015 149.082 157.68 149.042Z" fill="#BEDEEF"/>
<path d="M156.789 130.31L157.801 130.306C158.311 130.3 158.714 130.166 159.009 129.905C159.309 129.644 159.458 129.267 159.456 128.775C159.454 128.301 159.327 127.935 159.075 127.676C158.828 127.413 158.449 127.282 157.939 127.284C157.492 127.286 157.126 127.417 156.84 127.678C156.554 127.935 156.412 128.27 156.413 128.685L154.752 128.692C154.75 128.181 154.883 127.716 155.15 127.296C155.421 126.875 155.798 126.548 156.28 126.313C156.767 126.074 157.311 125.954 157.913 125.951C158.906 125.947 159.687 126.194 160.254 126.693C160.825 127.188 161.113 127.879 161.117 128.768C161.119 129.215 160.977 129.637 160.691 130.034C160.41 130.428 160.045 130.725 159.595 130.928C160.142 131.112 160.558 131.404 160.842 131.804C161.131 132.204 161.277 132.682 161.279 133.238C161.283 134.131 160.978 134.843 160.365 135.375C159.756 135.906 158.953 136.174 157.955 136.178C156.998 136.182 156.213 135.93 155.6 135.422C154.988 134.914 154.679 134.236 154.676 133.389L156.337 133.382C156.339 133.819 156.486 134.174 156.779 134.446C157.076 134.718 157.473 134.853 157.97 134.851C158.485 134.849 158.89 134.711 159.185 134.436C159.48 134.162 159.627 133.764 159.625 133.245C159.622 132.721 159.466 132.318 159.155 132.037C158.844 131.756 158.383 131.616 157.772 131.619L156.795 131.623L156.789 130.31Z" fill="#001018"/>
<path d="M59.8121 70.4981C59.3177 68.6909 58.7238 65.5098 59.5568 63.6777C60.218 62.2234 62.6324 62.1457 62.5745 64.0186C62.5303 65.4509 61.688 67.131 60.1441 67.2879C59.5889 67.3443 61.5293 68.6215 61.7273 68.8232C62.2515 69.3568 63.2403 69.6658 63.5433 70.3656" stroke="#002C42" stroke-width="0.8" stroke-linecap="round"/>
<path d="M64.339 62.9767C64.3139 63.7883 64.2147 64.9591 64.2426 66.0949C64.6766 68.3783 66.5187 69.5322 67.0053 68.0088C67.3978 66.78 67.9632 62.9135 66.633 62.1963" stroke="#002C42" stroke-width="0.8" stroke-linecap="round"/>
<path d="M69.851 68.2544C69.8639 66.6748 69.3382 65.356 69.152 63.8347C69.1191 63.5658 69.1412 62.4036 69.2406 62.4975C70.3327 63.5303 71.2107 64.816 72.3393 65.7775C73.5188 66.7823 73.7149 67.7719 73.3398 65.5404C73.1815 64.599 72.8448 60.7905 72.0804 60.3783" stroke="#002C42" stroke-width="0.8" stroke-linecap="round"/>
<path d="M75.8453 67.5882C75.8582 66.0086 75.3325 64.6899 75.1463 63.1686C75.1134 62.8996 75.1356 61.7374 75.2349 61.8314C76.327 62.8642 76.7857 64.2123 77.8846 65.3812C79.0641 66.3861 79.3935 67.6478 79.0185 65.4163C78.8602 64.4749 78.5235 60.6663 77.7591 60.2541" stroke="#002C42" stroke-width="0.8" stroke-linecap="round"/>
<path d="M79.9915 61.4738C79.9299 63.4682 80.1998 64.9491 80.9678 66.6114" stroke="#002C42" stroke-width="0.8" stroke-linecap="round"/>
<path d="M80.0396 59.9146C79.4242 60.0029 79.772 60.2773 80.044 59.7729" stroke="#002C42" stroke-width="0.8" stroke-linecap="round"/>
<path d="M82.5576 65.6674C82.6105 63.9556 82.2372 62.2618 82.2897 60.5595C82.3032 60.1238 82.3834 60.1573 82.6463 60.4996C83.3347 61.3962 83.8633 62.285 84.7024 63.0853C85.3369 63.6905 86.0653 64.1992 86.6987 64.8021C87.2338 65.3115 86.6296 63.5734 86.599 63.4355C86.3287 62.2174 86.2162 60.9765 85.9401 59.7579C85.8777 59.4823 85.853 58.9424 85.6069 58.8097" stroke="#002C42" stroke-width="0.8" stroke-linecap="round"/>
<path d="M90.9623 59.9682C90.4742 59.4648 89.9949 59.0871 89.2877 59.0652C88.586 59.0436 88.5582 59.7149 88.5393 60.3269C88.4985 61.6509 88.5431 62.846 89.3572 63.962C89.6436 64.3548 89.9941 64.8196 90.5259 64.9124C91.3067 65.0487 91.5395 64.338 91.7304 63.6806C91.8312 63.3335 92.0897 62.4062 91.5298 62.2636C91.1749 62.1731 90.0922 62.495 90.4583 62.5063" stroke="#002C42" stroke-width="0.8" stroke-linecap="round"/>
<path d="M53.7616 57.5738C52.4951 57.8277 51.2287 58.0816 49.9622 58.3354C49.6222 58.4036 48.5596 58.7178 48.3197 58.4097" stroke="#00689D" stroke-width="0.8" stroke-linecap="round"/>
<path d="M50.5024 60.3944C49.6322 60.0272 48.8561 59.3999 47.9523 59.1208C47.4211 58.9567 47.4493 58.9194 47.7069 58.5325C48.1423 57.8789 48.8275 57.1565 49.4276 56.6578C49.8485 56.308 50.0751 55.8118 50.5493 55.5405" stroke="#00689D" stroke-width="0.8" stroke-linecap="round"/>
<path d="M51 80.7572C51.2847 79.4153 53.0473 78.9148 53.7819 80.1392C54.1705 80.7869 54.2165 82.3293 54.0074 83.0499C53.9526 83.2389 53.0488 84.4009 53.0488 83.8972C53.0488 83.7178 54.717 83.8075 54.8909 83.8075C55.8902 83.8075 56.0996 84.6638 56.0751 85.6018C55.9979 88.5491 53.0803 89.2081 51 88.4726" stroke="#002C42" stroke-linecap="round"/>
<path d="M58 88.1165C58 88.1165 57.5 88.5 57.5 88.1165" stroke="#002C42" stroke-width="0.8" stroke-linecap="round"/>
<path d="M57.7692 78.595C57.7692 80.7651 58.2208 83.0465 59.1309 85.0258C59.2643 85.3161 59.2102 86.7655 59.6171 86.8779C60.1999 87.0389 61.2895 86.0778 61.9708 86.0412C62.3991 86.0182 61.692 84.7015 61.6304 84.4335C61.4082 83.4671 61.734 84.1497 61.7958 84.6873C61.8773 85.3971 62.321 85.9678 62.321 86.7181C62.321 87.4129 62.6241 88.1049 62.8461 88.7489" stroke="#002C42" stroke-linecap="round"/>
<path d="M61.1539 78.576C62.5141 76.7964 64.0485 78.1752 64.0485 80.0106C64.0485 80.7143 64.0113 81.304 63.3248 81.6643C62.8823 81.8965 64.3899 81.5303 64.8626 81.6344C66.4224 81.9779 66.4347 84.5878 65.948 85.6491C65.4001 86.8438 63.7794 87.4085 62.6012 86.8246" stroke="#002C42" stroke-linecap="round"/>
<path d="M68.7692 82.1813C68.7692 83.2018 69.461 85.1636 69.461 85.1636C69.461 85.1636 69.1994 83.9466 69.3303 83.3573C69.3696 83.1804 69.5103 82.6086 69.6301 82.4888C69.7712 82.3477 69.4827 83.2942 69.4687 83.3573C69.3934 83.6962 69.1235 84.1183 69.6301 84.1183C70.1509 84.1183 70.6134 84.395 71.1212 84.395" stroke="#8C96A2" stroke-width="0.5" stroke-linecap="round"/>
<path d="M70.9828 84.3949C70.8852 83.8949 70.7061 83.3093 70.7061 82.8039C70.7061 82.517 70.5497 82.3631 70.8137 82.6271C71.1115 82.925 71.6745 83.7889 71.6745 83.0114C71.6745 82.6909 71.6546 82.3628 71.6745 82.043C71.6871 81.8415 72.074 82.4066 72.0973 82.5349C72.2153 83.1839 72.7814 83.712 72.7814 84.3949" stroke="#8C96A2" stroke-width="0.5" stroke-linecap="round"/>
<path d="M98.0969 88.3683C98.6491 88.1842 99.2887 87.794 99.858 87.6905C100.143 87.6386 100.017 88.083 100.042 88.2543C100.157 89.0648 100.453 89.8729 100.631 90.6741C100.915 91.9551 101.203 93.2217 101.454 94.513C101.605 95.2898 101.638 96.068 101.86 96.8315C101.917 97.0274 102.277 97.7376 102.088 97.8324" stroke="#002C42" stroke-linecap="round"/>
<path d="M86.0102 96.236C86.0102 94.7144 85.891 93.1767 86.4663 91.7384C86.4998 91.6546 86.7528 90.8895 86.8718 90.8895C87.2705 90.8895 87.4786 91.6605 87.5813 91.9031C88.4273 93.9028 88.9836 95.888 89.2536 98.0478C89.3132 98.5245 89.2011 99.1502 89.374 99.5998C89.418 99.7143 89.4508 100.153 89.317 99.8848" stroke="#002C42" stroke-linecap="round"/>
<path d="M91.1414 90.1927C91.1414 91.1176 90.9826 91.9663 90.9197 92.8786C90.8354 94.1006 90.9133 95.3531 90.9133 96.5781C90.9133 97.5545 90.9199 98.2713 91.5088 99.0867C91.8264 99.5264 92.0759 99.9989 92.649 99.9989C93.4623 99.9989 93.5719 99.3662 93.7006 98.6306C93.886 97.5714 93.9157 96.4061 93.2445 95.5519C92.4802 94.5791 91.7384 95.4109 91.1414 96.008" stroke="#002C42" stroke-linecap="round"/>
<path d="M92.8517 89.7366C92.9736 90.0564 93.3848 91.3833 92.8517 91.561" stroke="#002C42" stroke-width="0.5" stroke-linecap="round"/>
<path d="M96.0444 88.9384C95.5175 89.0541 94.6761 89.0975 94.6761 89.7429C94.6761 90.5162 95.356 91.1784 95.563 91.9031C95.6233 92.1142 95.7209 92.593 95.8797 92.7519C96.0673 92.9395 96.4599 92.6309 96.6653 92.5936C97.3101 92.4763 97.7369 92.3802 98.325 92.7583C98.8487 93.0949 99.1417 94.2154 99.2625 94.779C99.418 95.5047 99.6162 96.2421 99.3512 96.9709C98.9248 98.1434 96.8425 98.9725 96.1585 97.6043" stroke="#002C42" stroke-linecap="round"/>
<path d="M102.088 87C102.088 87.6484 102.143 88.2577 101.86 88.8244" stroke="#002C42" stroke-width="0.5" stroke-linecap="round"/>
<path d="M103 87C103 87.7382 102.954 88.1172 102.658 88.7104" stroke="#002C42" stroke-width="0.5" stroke-linecap="round"/>
<path d="M62.5713 157.469L56.4079 113.885C56.1807 112.278 57.2722 110.782 58.8715 110.508L105.629 102.492C107.228 102.218 108.756 103.265 109.077 104.855L117.883 148.444C118.22 150.112 117.102 151.727 115.422 151.999L66.022 160.01C64.363 160.279 62.8067 159.133 62.5713 157.469Z" fill="#F7F1E4"/>
<path d="M64.5 104.5C64.5 107.774 65.1861 111.096 66.25 114.194C68.3659 120.356 69.7369 126.809 71.3611 133.111C73.114 139.913 73.6868 146.952 74.6389 153.889C74.8389 155.346 74.9933 157.051 75.5 158.444C75.9385 159.65 76.1316 159.691 74.75 159" stroke="white" stroke-width="2" stroke-linecap="round"/>
<path d="M57.75 132.25C62.3601 132.25 66.6859 131.982 71.25 131.25C75.326 130.596 79.5373 130.498 83.5 129.25C84.1781 129.037 88.5427 127.902 88.25 127.444C86.487 124.69 86.5949 121.907 86.0556 118.806C85.6989 116.755 85.6516 116.541 87.4444 115.5C89.2618 114.445 90.9137 113.44 93 113C95.3382 112.506 97.6976 112.095 100 111.444C101.198 111.106 102.645 111.058 103.75 110.444C104.403 110.082 103.167 107.92 103 107.5C101.689 104.204 101.5 105.06 101.5 101.5" stroke="white" stroke-width="2" stroke-linecap="round"/>
<path d="M80 131C83.1015 135.443 87.2224 141.675 93.3056 141.75C99.562 141.827 109.583 138.139 109.75 130.611C109.805 128.121 110.107 125.847 110.5 123.389C110.686 122.224 111 121.247 111 120.056C111 119.146 110.885 118.153 111.014 117.25C111.171 116.147 111.81 115.94 112.5 115.25" stroke="white" stroke-width="2" stroke-linecap="round"/>
<path d="M87 123C88.5225 122.927 90.0619 122.247 91.5 121.75C93.3035 121.127 95.2617 120.508 97 119.75C97.8518 119.379 97.8306 119.232 98.1944 120C98.8177 121.316 99.0898 122.762 99.6111 124.111C100.394 126.137 100.948 128.108 101.306 130.25C101.504 131.442 101.635 133.157 102.25 134.194C102.753 135.043 103.25 136.542 103.25 137.5" stroke="white" stroke-width="2" stroke-linecap="round"/>
<path d="M75 150.5C79.403 150.427 83.5954 149.167 87.9444 148.556C91.1067 148.111 94.1368 147.267 97.25 146.611C100.355 145.958 103.457 145.465 106.5 144.556C109.167 143.759 112.155 143 114.944 143C115.709 143 118.144 142.789 118.5 143.5" stroke="white" stroke-width="2" stroke-linecap="round"/>
<path d="M69.5 119C71.6506 118.95 73.3678 117.576 75.4861 117.25C76.4646 117.099 77.9159 116.917 78.75 116.5" stroke="white" stroke-width="2" stroke-linecap="round"/>
<path d="M76 106.5C76.9418 111.491 80.4708 115.291 81.625 120.139C82.0176 121.788 82.7192 123.361 83.3056 124.944C83.7212 126.067 84.3626 127.794 85 128.75" stroke="white" stroke-width="2" stroke-linecap="round"/>
<path d="M60.25 143C62.7214 143 64.9561 143.002 67.3056 142.306C68.62 141.916 70.1348 141.75 71.5 141.75" stroke="white" stroke-width="2" stroke-linecap="round"/>
<path d="M104.023 134.567C104.023 132.064 103.836 129.438 104.53 127.011C104.566 126.885 105.297 127.851 105.37 127.942C105.913 128.616 106.762 128.829 107.384 129.372C107.564 129.53 108.185 129.817 107.946 129.817C107.455 129.817 106.986 129.924 106.495 129.942C106.195 129.953 103.958 130.757 104.051 130.414C104.241 129.707 104.648 128.822 104.648 128.129C104.648 127.809 105.269 128.688 105.37 128.789C105.65 129.069 105.971 129.53 106.335 129.692C106.654 129.833 107.094 129.989 106.46 129.879C105.999 129.8 105.616 129.692 105.148 129.692C104.588 129.692 104.807 129.14 105.023 128.761C105.187 128.473 105.023 128.288 105.023 127.942" stroke="#C70000" stroke-width="0.8" stroke-linecap="round"/>
<path d="M104 135C104.143 135.733 105.465 144.987 105.25 145C100.13 145.301 74.7358 154.915 73.9999 150.5C72.2968 140.281 72.8576 129.544 67.6249 120.125C67.3857 119.694 78.2136 116 80 116C82.2859 116 81.5566 129.371 86.1944 127.944C86.696 127.79 87.1814 127.395 87.6388 127.264C88.6389 126.978 85.0537 122.5 87.3749 122.5C90.7527 122.5 94.5596 122.066 97.1944 119.694C98.5771 118.45 101.524 132.073 102 133.5" stroke="#002C42" stroke-width="2" stroke-linecap="round"/>
<path d="M71.7363 168.494C71.7363 169.861 72.4105 170.975 72.7349 172.273C72.8177 172.604 72.9619 173.11 72.9619 173.447C72.9619 173.848 74.1067 173.334 74.2669 173.294C75.2269 173.057 76.1251 172.573 77.0926 172.324C77.8279 172.135 78.0353 172.172 77.8643 171.388C77.5605 169.994 77.5407 168.57 76.7408 167.37" stroke="#002C42" stroke-width="1.2" stroke-linecap="round"/>
<path d="M70 169.107C70.2652 167.516 71.2509 165.792 72.2923 164.562C72.6055 164.192 72.667 164 73.1718 164C73.8256 164 74.5341 164.378 75.1067 164.664C76.2298 165.225 77.315 165.717 78.375 166.247" stroke="#002C42" stroke-width="1.2" stroke-linecap="round"/>
<path d="M87.125 170.75C87.6674 169.155 88.6872 167.751 89.4375 166.25C89.5621 166.001 89.9075 165.02 90.25 165C90.6766 164.975 91.0883 165.159 91.5 165.25C92.1445 165.393 92.7897 165.68 93.4236 165.875C93.9344 166.032 93.9576 165.839 94.2222 165.319C94.7939 164.197 96.1011 162.197 96.5 161" stroke="#002C42" stroke-width="1.2" stroke-linecap="round"/>
<path d="M97.25 163.396C97.25 162.916 97.204 160.744 96.5 161C95.6353 161.314 95.5 161.5 94 162.021" stroke="#002C42" stroke-width="1.2" stroke-linecap="round"/>
<path d="M111.393 157C111.027 157.937 111.151 158.561 111.4 159.431C111.617 160.19 112.968 160.205 113.365 159.625C113.783 159.014 114.199 158.082 114.712 157.569C114.897 157.385 115.697 158.722 115.761 158.944C115.917 159.493 116.197 160.321 115.92 160.875C115.118 162.481 113.892 162.625 112.33 162.625C111.742 162.625 110.605 166.506 110.295 167.125C109.991 167.733 109.714 168.162 108.955 167.993C108.307 167.849 107.752 167.475 108.115 166.75C108.796 165.388 109.195 163.92 109.525 162.438C109.799 161.201 107.702 159.771 109.143 158.25C109.748 157.611 110.22 157 111.143 157" stroke="#002C42" stroke-width="1.2" stroke-linecap="round"/>
<path d="M55.25 97.75C55.25 96.9793 55.2926 95.9714 56.1528 95.6528C56.5652 95.5 57.4469 95.3351 57.875 95.5278C59.5967 96.3025 59.274 99.1075 59.25 100.597C59.2308 101.785 58.4733 102.979 58.125 104.097C58.0582 104.312 57.5086 105.75 57.7778 105.75C58.3642 105.75 61.7239 104.698 61.625 104.5" stroke="#002C42" stroke-linecap="round"/>
<path d="M87.5 82C87.5 82 87 82.3836 87 82" stroke="#002C42" stroke-width="0.8" stroke-linecap="round"/>
<path d="M77.0102 80.3465C77.0102 78.8249 76.891 77.2872 77.4663 75.8489C77.4998 75.7651 77.7528 75 77.8718 75C78.2705 75 78.4786 75.771 78.5813 76.0136C79.4273 78.0132 79.9836 79.9984 80.2536 82.1582C80.3132 82.635 80.2011 83.2607 80.374 83.7103C80.418 83.8248 80.4508 84.2631 80.317 83.9953" stroke="#002C42" stroke-linecap="round"/>
<path d="M86.0102 78.3465C86.0102 76.8249 85.891 75.2872 86.4663 73.8489C86.4998 73.7651 86.7528 73 86.8718 73C87.2705 73 87.4786 73.771 87.5813 74.0136C88.4273 76.0132 88.9836 77.9984 89.2536 80.1582C89.3132 80.635 89.2011 81.2607 89.374 81.7103C89.418 81.8248 89.4508 82.2631 89.317 81.9953" stroke="#002C42" stroke-linecap="round"/>
<path d="M90.3683 72C89.8414 72.1157 89 72.1591 89 72.8045C89 73.5778 89.6798 74.24 89.8869 74.9647C89.9472 75.1757 90.0447 75.6546 90.2036 75.8135C90.3912 76.0011 90.7838 75.6925 90.9891 75.6551C91.6339 75.5379 92.0608 75.4418 92.6488 75.8198C93.1725 76.1565 93.4656 77.277 93.5863 77.8406C93.7418 78.5662 93.94 79.3037 93.675 80.0324C93.2486 81.205 91.1664 82.0341 90.4823 80.6659" stroke="#002C42" stroke-linecap="round"/>
<path d="M80 76.0161C80 75.3433 80.0401 74.4634 80.8494 74.1853C81.2374 74.0519 82.067 73.908 82.4698 74.0761C84.0896 74.7525 83.786 77.2012 83.7634 78.5017C83.7454 79.5387 83.0327 80.581 82.705 81.5571C82.6421 81.7443 82.1251 83 82.3783 83C82.93 83 86.0911 82.0815 85.998 81.9088" stroke="#002C42" stroke-linecap="round"/>
<path d="M61.0305 95C61.0305 96.9252 60.9304 98.8802 61.093 100.799C61.1434 101.394 61.1096 102.724 61.5582 103.222C61.8847 103.585 62.0013 103.447 62.5374 103.312C63.1576 103.157 63.7871 103.03 64.4055 102.875" stroke="#002C42" stroke-linecap="round"/>
<path d="M64.1555 102.125C64.1396 102.026 63.8906 100.726 63.9055 101.097C63.925 101.584 64.177 102.034 64.2805 102.5C64.3386 102.762 64.6997 103.897 64.9055 104" stroke="#002C42" stroke-linecap="round"/>
<path d="M66.0305 94C66.0305 95.9252 65.9304 97.8802 66.093 99.7986C66.1434 100.394 66.1096 101.724 66.5582 102.222C66.8847 102.585 67.0013 102.447 67.5374 102.312C68.1576 102.157 68.7871 102.03 69.4055 101.875" stroke="#002C42" stroke-linecap="round"/>
<path d="M69.1555 101.125C69.1396 101.026 68.8906 99.7263 68.9055 100.097C68.925 100.584 69.177 101.034 69.2805 101.5C69.3386 101.762 69.6997 102.897 69.9055 103" stroke="#002C42" stroke-linecap="round"/>
<path d="M71.2162 99.7592C71.1684 100.292 71.3915 100.713 71.5059 101.222C71.5832 101.565 71.6668 101.932 71.8353 102.242" stroke="#8C96A2" stroke-width="0.5" stroke-linecap="round"/>
<path d="M71.562 101.425C71.6027 100.971 71.6543 100.564 71.9646 100.22C72.0743 100.098 72.2172 99.9438 72.3016 99.8071" stroke="#8C96A2" stroke-width="0.5" stroke-linecap="round"/>
<path d="M71.499 101.023C72.0036 101.159 72.6688 101.399 73.0674 101.758" stroke="#8C96A2" stroke-width="0.5" stroke-linecap="round"/>
<path d="M73.8915 99.7517C73.6103 99.6118 73.3585 99.6203 73.3243 100.001C73.2927 100.352 73.2667 100.731 73.4275 101.058C73.5954 101.401 73.7022 101.679 74.0455 101.868C74.2636 101.988 74.5281 101.954 74.653 101.752" stroke="#8C96A2" stroke-width="0.5" stroke-linecap="round"/>
<path d="M74.8942 101.823C74.9513 101.187 75.0085 100.551 75.0656 99.915C75.0756 99.8031 75.1088 99.3309 75.2021 99.2531C75.2756 99.1916 75.8586 100.165 75.9243 100.281C76.0794 100.555 76.2502 100.825 76.4477 101.071C76.5462 101.194 76.614 101.382 76.7607 101.446" stroke="#8C96A2" stroke-width="0.5" stroke-linecap="round"/>
<path d="M75.1122 101.05C75.4088 101.021 75.6174 100.97 75.8713 100.871" stroke="#8C96A2" stroke-width="0.5" stroke-linecap="round"/>
<path d="M76.5795 99.0521C76.6347 99.725 76.8302 100.364 77.0888 100.98C77.1736 101.182 77.4514 101.085 77.6159 101.055C77.7215 101.035 78.0854 101.064 78.1403 100.975" stroke="#8C96A2" stroke-width="0.5" stroke-linecap="round"/>
<path d="M96 77.2545C96 78.2719 96.6897 80.2277 96.6897 80.2277C96.6897 80.2277 96.4288 79.0144 96.5594 78.4269C96.5986 78.2506 96.7388 77.6805 96.8582 77.561C96.9989 77.4203 96.7113 78.364 96.6973 78.4269C96.6222 78.7648 96.3532 79.1856 96.8582 79.1856C97.3775 79.1856 97.8385 79.4614 98.3448 79.4614" stroke="#8C96A2" stroke-width="0.5" stroke-linecap="round"/>
<path d="M98.2068 79.4614C98.1096 78.9629 97.931 78.379 97.931 77.8752C97.931 77.5892 97.7751 77.4358 98.0383 77.6989C98.3352 77.9959 98.8965 78.8572 98.8965 78.0821C98.8965 77.7626 98.8766 77.4354 98.8965 77.1166C98.9091 76.9158 99.2947 77.4791 99.318 77.607C99.4356 78.2541 100 78.7806 100 79.4614" stroke="#8C96A2" stroke-width="0.5" stroke-linecap="round"/>
<path d="M101.031 76.0737C101.031 77.029 101 77.9828 101 78.9383C101 79.3586 101.031 80.619 101.031 80.1987" stroke="#8C96A2" stroke-width="0.5" stroke-linecap="round"/>
<path d="M101.838 76.4197C101.838 77.4062 101.838 78.5 102.229 79.6294" stroke="#8C96A2" stroke-width="0.5" stroke-linecap="round"/>
<path d="M103.011 76.3089C103 77 103.5 78.5 103.5 79.5" stroke="#8C96A2" stroke-width="0.5" stroke-linecap="round"/>
<path d="M101.988 78.1251C102.385 78.1481 102.742 77.8709 103.076 77.859" stroke="#8C96A2" stroke-width="0.5" stroke-linecap="round"/>
</g>
<defs>
<clipPath id="clip0">
<rect width="177" height="202" fill="white"/>
</clipPath>
</defs>
</svg>
