<?xml version="1.0" encoding="utf-8"?>
<!-- Generator: Adobe Illustrator 23.0.2, SVG Export Plug-In . SVG Version: 6.00 Build 0)  -->
<svg version="1.1" id="Calque_1" xmlns="http://www.w3.org/2000/svg" xmlns:xlink="http://www.w3.org/1999/xlink" x="0px" y="0px"
	 viewBox="0 0 59 56.8" style="enable-background:new 0 0 59 56.8;" xml:space="preserve">
<style type="text/css">
	.st0{fill:#0371B9;}
	.st1{fill:#FFFFFF;}
</style>
<title>refresh</title>
<path class="st0" d="M-54.6,9.6c-0.1,0-0.1,0.1-0.2,0.1c-0.1,0.1-0.2,0.1-0.3,0.2"/>
<path class="st0" d="M-54.1,9.3c-0.3,0.2-0.6,0.4-0.9,0.6c0.2-0.1,0.3-0.2,0.4-0.3C-54.4,9.5-54.3,9.4-54.1,9.3z"/>
<path class="st0" d="M-52.9,8.6c-0.3,0.2-0.6,0.3-0.9,0.5c0.1-0.1,0.2-0.2,0.4-0.2C-53.2,8.8-53,8.7-52.9,8.6z"/>
<path class="st1" d="M4.1,37l3.2-6.2l0.6-1.1c0.4-0.7,1.3-1,2-0.6l7.4,3.8c1.2,0.6,1,2.3-0.2,2.8l-3.2,1c2.5,4.6,6.8,8.2,12.4,9.2
	c8.1,1.5,15.8-2.6,19.2-9.7c0.3-0.7,0.6-1.3,0.8-2c0.2-0.6,0.3-1.2,0.5-1.7c0.2-1.2,1.4-2,2.6-1.9h0c1.4,0.2,2.3,1.6,2,3
	c0,0,0,0.1,0,0.1c-0.1,0.5-0.2,1-0.4,1.5c-0.1,0.4-0.3,0.8-0.4,1.2c-0.1,0.2-0.2,0.5-0.3,0.7c-0.1,0.2-0.1,0.3-0.2,0.5
	c0,0.1-0.1,0.2-0.1,0.2c-0.1,0.3-0.2,0.5-0.4,0.8c0,0.1-0.1,0.2-0.2,0.3c-0.2,0.3-0.3,0.6-0.5,0.9c-0.2,0.3-0.4,0.7-0.6,1
	c0,0,0,0.1-0.1,0.1c-0.5,0.7-1,1.4-1.5,2c-0.2,0.2-0.3,0.4-0.5,0.6c-0.1,0.1-0.3,0.3-0.4,0.5c-0.1,0.1-0.2,0.3-0.4,0.4
	c-0.3,0.3-0.5,0.5-0.8,0.8c-0.3,0.3-0.6,0.5-0.9,0.8c-0.3,0.3-0.7,0.5-1,0.8c-0.2,0.1-0.3,0.2-0.5,0.4c-0.3,0.2-0.6,0.4-0.9,0.6
	c-0.1,0-0.2,0.1-0.3,0.2c0,0-0.1,0-0.1,0.1c-0.3,0.2-0.6,0.3-0.9,0.5c0,0-0.1,0-0.1,0.1c0,0,0,0-0.1,0c-0.3,0.2-0.7,0.3-1,0.5
	c-0.2,0.1-0.5,0.2-0.8,0.3c-0.3,0.1-0.5,0.2-0.8,0.3c-0.3,0.1-0.7,0.2-1,0.3c-0.3,0.1-0.7,0.2-1,0.3c-0.4,0.1-0.9,0.2-1.3,0.3
	c-0.2,0-0.4,0.1-0.6,0.1c-0.1,0-0.3,0-0.5,0.1c-0.3,0-0.5,0.1-0.8,0.1c-0.3,0-0.5,0-0.8,0.1c-0.2,0-0.5,0-0.8,0c-0.1,0-0.1,0-0.2,0
	c-0.1,0-0.2,0-0.3,0c-0.5,0-0.9,0-1.4,0c-1,0-2.1-0.2-3.2-0.4c-0.5-0.1-0.9-0.2-1.4-0.3c-0.9-0.2-1.8-0.5-2.6-0.8
	c-0.5-0.2-0.9-0.4-1.4-0.6c-0.5-0.2-0.9-0.4-1.3-0.7c-0.3-0.2-0.6-0.3-0.9-0.5c-0.6-0.4-1.2-0.8-1.8-1.2c-0.3-0.2-0.6-0.5-0.9-0.7
	c-2.5-2.1-4.5-4.6-6-7.5l-3.4,1C4.6,39.5,3.5,38.2,4.1,37z"/>
<path class="st1" d="M54.9,19.8L51.6,26L51,27.2c-0.4,0.7-1.3,1-2,0.6l-7.4-3.8c-1.2-0.6-1-2.3,0.2-2.8l3.2-1
	c-2.5-4.6-6.8-8.2-12.4-9.2c-8.1-1.5-15.8,2.6-19.2,9.7c-0.3,0.7-0.6,1.3-0.8,2c-0.2,0.6-0.3,1.2-0.5,1.7c-0.2,1.2-1.4,2-2.6,1.9h0
	c-1.4-0.2-2.3-1.6-2-3c0,0,0-0.1,0-0.1c0.1-0.5,0.2-1,0.4-1.5c0.1-0.4,0.3-0.8,0.4-1.2c0.1-0.2,0.2-0.5,0.3-0.7
	c0.1-0.2,0.1-0.3,0.2-0.5c0-0.1,0.1-0.2,0.1-0.2c0.1-0.3,0.2-0.5,0.4-0.8c0-0.1,0.1-0.2,0.2-0.3c0.2-0.3,0.3-0.6,0.5-0.9
	c0.2-0.3,0.4-0.7,0.6-1c0,0,0-0.1,0.1-0.1c0.5-0.7,1-1.4,1.5-2c0.2-0.2,0.3-0.4,0.5-0.6c0.1-0.1,0.3-0.3,0.4-0.5
	c0.1-0.1,0.2-0.3,0.4-0.4c0.3-0.3,0.5-0.5,0.8-0.8c0.3-0.3,0.6-0.5,0.9-0.8c0.3-0.3,0.7-0.5,1-0.8c0.2-0.1,0.3-0.2,0.5-0.4
	c0.3-0.2,0.6-0.4,0.9-0.6c0.1,0,0.2-0.1,0.3-0.2c0,0,0.1,0,0.1-0.1c0.3-0.2,0.6-0.3,0.9-0.5c0,0,0.1,0,0.1-0.1c0,0,0,0,0.1,0
	c0.3-0.2,0.7-0.3,1-0.5c0.2-0.1,0.5-0.2,0.8-0.3c0.3-0.1,0.5-0.2,0.8-0.3c0.3-0.1,0.7-0.2,1-0.3c0.3-0.1,0.7-0.2,1-0.3
	c0.4-0.1,0.9-0.2,1.3-0.3c0.2,0,0.4-0.1,0.6-0.1c0.1,0,0.3,0,0.5-0.1c0.3,0,0.5-0.1,0.8-0.1c0.3,0,0.5,0,0.8-0.1c0.2,0,0.5,0,0.8,0
	c0.1,0,0.1,0,0.2,0c0.1,0,0.2,0,0.3,0c0.5,0,0.9,0,1.4,0c1,0,2.1,0.2,3.2,0.4c0.5,0.1,0.9,0.2,1.4,0.3c0.9,0.2,1.8,0.5,2.6,0.8
	c0.5,0.2,0.9,0.4,1.4,0.6c0.5,0.2,0.9,0.4,1.3,0.7c0.3,0.2,0.6,0.3,0.9,0.5c0.6,0.4,1.2,0.8,1.8,1.2c0.3,0.2,0.6,0.5,0.9,0.7
	c2.5,2.1,4.5,4.6,6,7.5l3.4-1C54.4,17.3,55.5,18.6,54.9,19.8z"/>
<path class="st0" d="M-59.6,14.1c-0.5,0.6-1,1.3-1.5,2C-60.6,15.4-60.1,14.7-59.6,14.1z"/>
<path class="st0" d="M-55.6,10.3c-0.4,0.3-0.8,0.6-1.1,0.9c0,0,0.1-0.1,0.1-0.1C-56.3,10.9-56,10.6-55.6,10.3z"/>
<path class="st0" d="M-58.3,12.6c0.3-0.3,0.5-0.5,0.8-0.8c-0.4,0.4-0.8,0.7-1.2,1.2C-58.5,12.9-58.4,12.8-58.3,12.6z"/>
<path class="st0" d="M-57.5,11.8C-57.5,11.8-57.5,11.9-57.5,11.8c0.2-0.2,0.4-0.4,0.7-0.6C-57,11.4-57.2,11.6-57.5,11.8z"/>
<path class="st0" d="M-54.7,9.7c0.2-0.1,0.4-0.3,0.6-0.4c-0.3,0.2-0.6,0.4-0.9,0.6C-54.9,9.8-54.8,9.8-54.7,9.7z"/>
<path class="st0" d="M-52.7,8.5c0,0-0.1,0.1-0.1,0.1c-0.3,0.2-0.6,0.3-0.9,0.5c0.1-0.1,0.2-0.2,0.4-0.2C-53.2,8.7-53,8.6-52.7,8.5z"
	/>
</svg>
