<?xml version="1.0" encoding="utf-8"?>
<!-- Generator: Adobe Illustrator 23.0.3, SVG Export Plug-In . SVG Version: 6.00 Build 0)  -->
<svg version="1.1" id="Calque_1" xmlns="http://www.w3.org/2000/svg" xmlns:xlink="http://www.w3.org/1999/xlink" x="0px" y="0px"
	 viewBox="0 0 59 56.8" style="enable-background:new 0 0 59 56.8;" xml:space="preserve">
<style type="text/css">
	.st0{fill:#0371B9;}
	.st1{fill-rule:evenodd;clip-rule:evenodd;fill:#FFFFFF;}
</style>
<title>refresh</title>
<path class="st0" d="M-54.6,9.6c-0.1,0-0.1,0.1-0.2,0.1c-0.1,0.1-0.2,0.1-0.3,0.2"/>
<path class="st0" d="M-54.1,9.3c-0.3,0.2-0.6,0.4-0.9,0.6c0.2-0.1,0.3-0.2,0.4-0.3C-54.4,9.5-54.3,9.4-54.1,9.3z"/>
<path class="st0" d="M-52.9,8.6c-0.3,0.2-0.6,0.3-0.9,0.5c0.1-0.1,0.2-0.2,0.4-0.2C-53.2,8.8-53,8.7-52.9,8.6z"/>
<path class="st0" d="M-59.6,14.1c-0.5,0.6-1,1.3-1.5,2C-60.6,15.4-60.1,14.7-59.6,14.1z"/>
<path class="st0" d="M-55.6,10.3c-0.4,0.3-0.8,0.6-1.1,0.9l0.1-0.1C-56.3,10.9-56,10.6-55.6,10.3z"/>
<path class="st0" d="M-58.3,12.6c0.3-0.3,0.5-0.5,0.8-0.8c-0.4,0.4-0.8,0.7-1.2,1.2C-58.5,12.9-58.4,12.8-58.3,12.6z"/>
<path class="st0" d="M-57.5,11.8C-57.5,11.8-57.5,11.9-57.5,11.8c0.2-0.2,0.4-0.4,0.7-0.6C-57,11.4-57.2,11.6-57.5,11.8z"/>
<path class="st0" d="M-54.7,9.7c0.2-0.1,0.4-0.3,0.6-0.4c-0.3,0.2-0.6,0.4-0.9,0.6C-54.9,9.8-54.8,9.8-54.7,9.7z"/>
<path class="st0" d="M-52.7,8.5l-0.1,0.1c-0.3,0.2-0.6,0.3-0.9,0.5c0.1-0.1,0.2-0.2,0.4-0.2C-53.2,8.7-53,8.6-52.7,8.5z"/>
<g>
	<g>
		<path class="st1" d="M54.1,27.7C40.8,7,17.4,6.9,4,27.5c-0.3,0.5-0.3,1,0,1.5c13.4,20.8,36.9,21,50.1,0.2
			C54.4,28.7,54.4,28.1,54.1,27.7z M29,38.7c-5.7,0-10.4-4.7-10.4-10.4c0-5.7,4.7-10.4,10.4-10.4c5.7,0,10.4,4.7,10.4,10.4
			C39.4,34.1,34.8,38.7,29,38.7z"/>
	</g>
	<circle class="st1" cx="29" cy="28.3" r="8.1"/>
</g>
</svg>
